<svg enable-background="new 0 0 3100 2000" viewBox="0 0 3100 2000" xmlns="http://www.w3.org/2000/svg"><path d="m1185.8 1561.43c11.44-62.27 32.75-122.79 64.3-178.89 8.94-15.89 18.66-31.4 29.1-46.49 4.93-7.12-7.35-13.69-12.25-6.61-37.41 54.12-65.47 113.82-82.72 176.01-4.82 17.36-8.72 34.89-11.72 52.59-.57 3.39.94 6.84 4.81 7.82 3.31.85 7.86-1.03 8.48-4.43z" fill="#13375b"/><path d="m1327.91 1353.24c9.72 8.29 14.59 19.89 18.7 31.22 4.97 13.69 8.9 27.7 12.05 41.84 6.19 27.84 9.16 56.16 11 84.49 1.07 16.43 1.75 32.87 2.42 49.32.35 8.53 14.77 8.57 14.42 0-2.45-59.28-4.97-119.84-25.26-176.66-5.07-14.21-11.01-29.11-23.62-39.16-2.8-2.24-6.95-2.54-9.71 0-2.55 2.34-2.73 6.62 0 8.95z" fill="#13375b"/><path d="m1349.35 1302.91h-192.15c-13.73 0-24.86 10.24-24.86 22.87 0 12.63 11.09 23.96 24.82 23.96l223.52 8.12c12.74 0 26.95-17.19 30.03-28.56l57.65-213.19c3.55-13.12-5.27-26.37-19.58-29.44-13.95-2.99-27.93 4.83-31.48 17.59l-52.1 187.34c-1.86 6.65-8.38 11.31-15.85 11.31z" fill="#13375b"/><path d="m1285.78 788.99-17.45-.62-1.64 16.19-17.23.16-3.47 15.28-12.87 2.22 1.12 6.52 17.21-2.97 3.3-14.49 17.92-.16 1.61-15.92 15.82.55z" fill="#466eb6"/><path d="m1074.82 1086.52-2.67 9.32 14.53 5.95-2.22 14.12 10.15 6.23-3.16 5.13-13.57-8.33 2.11-13.37-15.12-6.19 4.02-14.03z" fill="#f7cc7f"/><path d="m1472.51 1039.54-13.32 2.92-8.43-11.06-14.7 4.32-5.35-14.55-16.84 4.16-6.58-12.79-16.85 1.35.51 6.38 12.6-1.01 6.94 13.5 16.19-4 5.44 14.8 16.22-4.78 8.23 10.8 12.35-2.7 3.92 8.23 5.78-2.76z" fill="#f7cc7f"/><path d="m1118.61 1080.45 8.17-5.34-3.49-5.36-13.2 8.62 8.3 14.73-8.68 10.45 5.41 11.43-7.13 5.67 3.98 5.01 11.11-8.83-5.83-12.33 8.88-10.7z" fill="#f7cc7f"/><path d="m933.46 1194.87h254.6v83.89h-254.6z" fill="#86b1f2" transform="matrix(-1 0 0 -1 2121.5249 2473.625)"/><path d="m827.96 1190.07h190.42v327.29h-190.42z" fill="#fae0b2" transform="matrix(-1 0 0 -1 1846.3441 2707.4346)"/><path d="m1176.61 1178.4h26.92v380.93h-26.92z" fill="#184655" transform="matrix(-1 0 0 -1 2380.1338 2737.7344)"/><path d="m907.03 1516.55h19.32v42.79h-19.32z" fill="#184655" transform="matrix(-1 0 0 -1 1833.3842 3075.8936)"/><path d="m799.92 1517.21h19.32v42.1h-19.32z" fill="#184655" transform="matrix(-1 0 0 -1 1619.1572 3076.5303)"/><path d="m962.46 1171.15c.46 0 .92-.05 1.38-.16 3.97-.89 6.58-5.4 5.82-10.06 0 0-31.55-182.17-34.02-183.1-.78-.3-2.64-4.03-2.71-4.03-.38.01-.76.06-1.15.15-3.97.89-6.58 5.4-5.82 10.06l29.31 180.15c.67 4.12 3.74 6.99 7.19 6.99z" fill="#355389"/><path d="m1026.63 990.87 29.19 175.6-90.55 1.26-32.36-193.93 82.36 4.58c6.22.28 10.58 7.68 11.36 12.49z" fill="#466eb6"/><path d="m1182.76 1162.68c0 .1.01.2.01.3.01 5.6-3.26 10.22-7.34 10.23l-115 .29c-4.07.01-7.38-4.52-7.39-10.12 0-.24.01-.47.02-.7z" fill="#355389"/><path d="m1149.49 1162.68c0 .1.01.2.01.31.01 5.68-4.93 10.29-11.03 10.31l-172.26.36c-6.1.01-11.06-4.58-11.07-10.26 0-.24.01-.48.03-.71h194.32z" fill="#355389"/><path d="m1113.92 1480.52c-7 13.02-24.11 55.93-24.76 59.18-.19.94-2.61 4.07-3.42 4.66-22.09 2.21-38.26-9.65-50.53-21.35 11.59.81 29.3-2.18 31.88-2.62 6.72-1.15 6-21.59 9.84-44.56 5.96 2.74 28.31-3.17 36.99 4.69z" fill="#f7a491"/><path d="m1089.24 1539.42c-1.83 7.18-9.44 20.43-10.91 20.05-1.75-.45-66.97-23.87-72.58-33.21-3.46-5.76 14.37-6.04 28.72-5.31 12.27 11.69 51 20.33 54.77 18.47z" fill="#355389"/><path d="m1324.64 1296.96-151.72 8.74-55.32 191.54-43.96-8.6s24.67-198.17 39.04-214.75c39.19-45.23 176.13-39.88 176.13-39.88z" fill="#3c8f7c"/><path d="m1207.57 1490.82c-.56 8.83-2.58 19.51-2.19 29.81.27 6.91 2.83 15.32 3.14 16.62.22.93-.68 4.79-1.17 5.66-19.16 11.22-38.8 7.18-54.83 1.67 10.87-4.09 18.44-12.24 21.17-15.2 4.62-5.02 1.33-20.06-4.76-42.53 6.57-.01 27.48.45 38.64 3.97z" fill="#f7a491"/><path d="m1308.93 1220.56s-141.5 2.66-177.06 54.7c-26.61 38.94 39.65 231.01 39.65 231.01l39.87-7.34s-9.18-130.15-15.83-173.09c-1.13-7.28-6.31-28.77-6.31-28.77s17.69 5.27 50.55 7.37c45.15 2.88 110.86 2.12 125.04-5.26 24.51-12.75 34.79-47.31 24-69.86-10.78-22.56-79.91-8.76-79.91-8.76z" fill="#50bfa5"/><path d="m1208.48 1536.96c2.49 4.55 3.74 22.2 2.25 22.46-1.78.32-76.73 4.52-85.73-1.64-5.55-3.8 14.18-7.89 27.53-13.21 16.04 5.52 55.15-2.73 55.95-7.61z" fill="#355389"/><path d="m1200.24 1126.35s-41.21 10.3-61.81 16.86-46.83 8.43-46.83 8.43l-22.16 11.71 47.45 1.4 110.51-9.83 9.37-25.75z" fill="#f48c7f"/><path d="m1231.14 1043-19.67 2.81s-7.02 1.4-12.64 32.31-13.58 47.3-13.58 47.3l48.23 19.2c35.25-48.68 59.42-106.36-2.34-101.62z" fill="#b75742"/><path d="m1229.96 1014.98c-12.56 2.2-13.33 12.34-13.33 12.34l-12.86 53.62s-1.18 22.71 1.42 31.4c5.07 16.91 15.32 23.57 32.12 29.32 22.26 7.62 31.06 26.81 40.66 38.01 16.66 19.43 3.1 42.68 3.1 42.68l116.42 16.34s1.58-22.72-24.79-86.57c-22.91-55.45-77.8-148.51-142.74-137.14z" fill="#f47458"/><path d="m1271.41 1021.46c-14.28-15.69-50.57 3.75-39.33 55.72.07.34 4.18 54.91.71 61.85-2.11 4.21-52.68 2.11-83.29 8.55 0 0-33.1-12.28-44.72-13.11-8.61-.61-29.11 5.93-29.11 5.93s-26.41 19.49-22.71 22.71c5.05 4.41 17.48-14.83 27.94-14.83 0 0-19.07 14.74-13.19 15.06 5.88.33 14.01-4.08 18.26-5.38 4.25-1.31 19.9 6.55 33.72 8.19 2.28.27 11.31-.22 21.77 1.17 10.62 1.41 22.62 5.28 36.68 5.93 37.8 1.76 80.58 5.93 91.17-4.72 7.9-7.94 26.13-120.68 2.1-147.07z" fill="#f7a491"/><path d="m1277.8 1136.37c-23.08-2.99-46.23-11.73-46.23-11.73s-1.9-45.72-2.07-47.45c-1.48-23.88-.59-43.1 9.41-55.49 5.03-6.24 10.41-7.72 16.81-7.72 5.99 0 14.34 2.35 18.73 7.96 16.1 20.55 9.94 80.37 4.91 113.26l-.21 1.36z" fill="#b75742"/><path d="m1219.51 926.55c1.77-15.4 1.75-73.94 37.33-72.73s35.79 40.36 64.6-6.82c26.69-43.71 75.99-15.46 71.41 20.71 5.09.52 10.08 2.23 14.58 5.22 15.56 10.34 19.31 32.05 8.39 48.49-1.74 2.61-1.59 5.56-3.79 7.58 1.1 16.34-5.08 33.61-20.53 49.41-42.21 43.15-65.27-15.09-88-16.53-22.73-1.45-11.55 18.66-33.36 28.55-21.8 9.89-36.61 3.41-60.9-39.49l-5.79-11.65c-.02-.01 14.28 2.66 16.06-12.74z" fill="#b75742"/><path d="m1198.99 915.95c25.03 17.47 30.56 61.95 7.52 83.19-14.97 13.8-44.47 16.21-60.85 2.51-26.56-22.21-29.53-47.34-20.11-67.07 12.16-25.47 52.79-33.04 73.44-18.63z" fill="#b75742"/><path d="m1206.81 976.21s7.71 23.94 34.87 37.76c3.34 1.7-37.89 68.02-37.91 67.23-.12-5.12 7.13-34.99 5.37-38.67-4.82-10.05-32.82-55.86-32.82-55.86z" fill="#f7a491"/><path d="m1191.23 981.55-14.92 5.12c.03.05 12.3 20.13 21.99 36.61 3.43-2.82 6.48-6.9 8.9-12.5 3.89-8.96 4.47-18.29 2.98-27.15-2.43-4.45-3.38-7.42-3.38-7.42z" fill="#f47458"/><path d="m1151.25 931.28s13.36-5.65 27.89-.21 40.64 40.77 27.18 71.76-45.62 15.59-59.9-4.07c-14.27-19.65-28.49-49.29 4.83-67.48z" fill="#f7a491"/><path d="m1209.14 948.83c-11.51-19.99-24.15-31.72-41.9-27.17s-33.67 7.59-34.87 28.43l-1.28 3.56s25.71-12.56 36.37-2.73 32.99 13.04 35.96 19.85 10.31 19.15 10.31 19.15l1.33-7.66c0-.01 5.59-13.44-5.92-33.43z" fill="#b75742"/><path d="m1182.03 961.08c2.4 6.2 7.83 9.78 12.13 8s5.83-8.26 3.43-14.46-7.83-9.78-12.13-8-5.84 8.25-3.43 14.46z" fill="#f7a491"/><path d="m723.47 1190.07h309.66v327.29h-309.66z" fill="#86b1f2" transform="matrix(-1 0 0 -1 1756.5892 2707.4346)"/><path d="m1028.81 1182.81h25.58v376.68h-25.58z" fill="#184655" transform="matrix(-1 0 0 -1 2083.196 2742.3037)"/><path d="m716.71 1185.65h14.45v376.68h-14.45z" fill="#184655" transform="matrix(-1 0 0 -1 1447.8687 2747.9766)"/><path d="m666.31 1196.42h557.69c5.46 0 9.89-4.43 9.89-9.89v-3.41c0-5.46-4.43-9.89-9.89-9.89h-557.69c-5.46 0-9.89 4.43-9.89 9.89v3.41c0 5.46 4.43 9.89 9.89 9.89z" fill="#184655"/><path d="m2484.62 1564.86c0-3.84-1.9-6.96-4.24-6.96h-1903.5c-2.84 0-5.14 3.12-5.14 6.96 0 3.85 2.3 6.96 5.14 6.96h1903.5c2.34 0 4.24-3.12 4.24-6.96z" fill="#86b1f2"/><path d="m1782.8 449.33h268.02c25.55 0 46.27-20.71 46.27-46.27v-92.53c0-25.55-20.71-46.27-46.27-46.27h-268.02c-25.55 0-46.27 20.71-46.27 46.27v92.53c0 25.56 20.71 46.27 46.27 46.27z" fill="#f7a491"/><path d="m2000.94 426.87 6.8 131.12-92.53-134.18z" fill="#f7a491"/><path d="m1639.58 830.12 5.95-27.06s19.47 12.35 30.83 30 16.77 64.71 20.01 66.47 39.18-53.6 45.46-62.32c7.77-10.79 10.67-23.18 15.54-32.59s22-12.62 28.49-11.44-8.91 28.71-8.91 28.71-38.94 67.65-51.92 104.71-53.54 54.71-60.03 49.41-25.42-145.89-25.42-145.89z" fill="#f48c7f"/><path d="m1757.79 809.8s1.62-7.12 5.99-8.58 11.98-.16 12.47 0c.48.16 8.9-4.37 8.9-4.37l-6.96 12.95s-13.6 16.03-18.13 10.04-2.27-10.04-2.27-10.04z" fill="#f7a491"/><path d="m1787.58 797.44s4.91 24.98 3.67 30.22c-1.25 5.25-4.38 2.44-4.96 1.3-2.42-4.7-4.1-20.72-4.1-20.72z" fill="#f48c7f"/><path d="m1777 818.22s2.34 15.5 4.75 17.32c1.56 1.19 3.56.49 4.21-2.64s-3.13-22.23-3.13-22.23z" fill="#f48c7f"/><path d="m1762.69 862.19-8.15-3.97 34.61-71.01c4.5 2.19 6.37 7.62 4.18 12.12z" fill="#184655"/><path d="m1675.71 718.85c4.89-22.21 9.67-44.56-3.21-68.95-10.42-19.74-28.44-31.1-49.29-33.58-59.08-7.01-46.46 48.15-129.04 60.09-25.66 3.71-49.5 7.28-70.92 20.04-38.69 23.04-53.29 60.01-27.63 120.23 62.82 147.46 217.02 22.28 236.07-6.76 14.16-21.61 40.88-76.78 44.02-91.07z" fill="#13375b"/><path d="m1439.42 1650.31s-4.21 42.72-15.02 50.56c-10.82 7.84-25.24 36.86-18.03 52.55 2.25 4.9 6.76 7.74 11.89 9.32 15.2 4.68 31.36-3.2 37.83-17.72 3.61-8.11 6.79-18.94 7.42-32.57 1.62-34.71 12.44-52.36 12.44-52.36z" fill="#f7a491"/><path d="m1605.62 1667.79s3.41 43.1.64 57.11c-1.48 7.5-9.74 22.94-5.95 30s8.11 8.82 8.11 8.82l98.11 1.58c5.34.09 1.81-3.35-2.5-6.51-7.05-5.18-12.74-8.6-35.27-19.47-1.47-.71-6.82-4.1-8.75-5.28-4.89-2.98-9.8-7.67-14.04-12.37-7.04-7.83-7.66-45.79-7.66-45.79z" fill="#f7a491"/><path d="m1682.3 1094.83s12.35 69.99 4.24 115.87-47.05 471.17-47.05 471.17l-43.27 2.44s-9.07-177.65-7.45-202.36 14.46-66.05 14.46-66.05l-4.31-143.43 54.6-188.43z" fill="#3c8f7c"/><path d="m1555.14 1080.12s-34.07 51.18-42.18 93.53 5.95 172.51-9.65 228.01c-8.45 30.04-40.46 76.44-45.33 115.26s-23.96 140.52-23.96 140.52l43.25 8.56 100.51-253.97 78.84-229.55 20.2-118.23z" fill="#50bfa5"/><path d="m1582.72 788.95s-29.83 3.39-47.68 22.8 28.84 175.45 32.09 200.15c3.25 24.71-26.59 82.34-26.59 82.34s111.48 20.6 141.76.6c0 0 3.24-177.65 0-195.3-3.25-17.65-30.28-89.42-36.77-96.47-6.49-7.07-62.81-14.12-62.81-14.12z" fill="#fae0b2"/><path d="m1540.53 826.39c2.88-8.69 12.73-12.88 21.14-9.25 11.52 4.98 27.42 14.43 35.19 30.63 12.98 27.06 58.41 120 72.47 123.53s71.38-96.47 71.38-96.47-1.62-17.65 3.25-27.65 19.47-20.59 21.63-17.06-8.11 12.35-8.11 14.12c0 1.76 4.33 2.94 10.28-.59s9.17-10.67 9.17-10.67 9.76 17.73-.52 33.61-14.6 22.35-14.6 22.35-66.52 147.65-90.85 149.42c-22.68 1.65-153.21-143.12-130.43-211.97z" fill="#f7a491"/><path d="m1597.73 728.79s-.23 1.33-.65 3.58c-2.01 10.82-9.75 46.73-14.99 56.6-6.32 11.93 21.65 49.97 48.57 45.33 8.01-1.38-6.77-34.95-6.06-38.51 1.36-6.81 3.21-16.09 5.09-25.62 1.07-5.37 2.14-10.82 3.16-15.94 2.88-14.55 5.23-26.45 5.23-26.45z" fill="#f7a491"/><path d="m1597.08 732.37c.42-2.26.65-3.58.65-3.58l40.34-1s-2.35 11.9-5.23 26.45c-1.01 5.09-2.08 10.5-3.14 15.85-6.23-.92-12.74-3.94-19.26-9.64-7.11-6.21-11.78-13.68-14.59-21.65.5-2.55.92-4.75 1.23-6.43z" fill="#f47458"/><path d="m1622 632.92s-16.45 2.28-28.37 17.67-24.76 62.96 4.84 88.82c29.61 25.86 58.86-3.41 63.2-34.45 4.34-31.05 3.46-73.16-39.67-72.04z" fill="#f7a491"/><path d="m1671.14 694.34c-3.53 6.86-9.46 10.65-13.25 8.48-3.78-2.17-3.99-9.49-.45-16.35 3.53-6.86 9.47-10.65 13.25-8.48 3.79 2.18 3.99 9.5.45 16.35z" fill="#f7a491"/><path d="m1627.01 632.2s-25.4 45.24-43.57 47.33-20.56 26.13-20.56 26.13 6.5-55.39 24.49-66.07c17.99-10.69 39.64-7.39 39.64-7.39z" fill="#13375b"/><path d="m1589.38 690.31c1.48 8.03-1.5 15.4-6.64 16.46-5.14 1.05-10.51-4.6-11.99-12.64-1.48-8.03 1.49-15.4 6.64-16.46 5.14-1.05 10.51 4.6 11.99 12.64z" fill="#f7a491"/><path d="m1459.04 1737.37c-23.57 4.29-39.25-9.47-47.41-19.77-5.99 11.67-9.66 26.23-5.26 35.82 3.88 8.44 14.45 10.75 23.38 11.08 9.44.35 18.27-4.59 22.96-12.79 2.18-3.83 4.44-8.6 6.33-14.34z" fill="#3c8f7c"/><path d="m1660 1734.04c-25.95 6.64-45.13 2.13-55.86-2.19-2.77 7.83-6.44 17.64-4.49 23.3 2.38 6.93 5.77 8.5 8.77 8.58 23.7.62 86.81 1.47 104.88 1.7 2.52.03 3.92-2.91 2.29-4.84-4.47-5.34-53.65-25.37-55.59-26.55z" fill="#3c8f7c"/><path d="m588.51 726.57c41.08-57.89 132.51-31.12 135.18 39.82.03.83.06 1.67.07 2.5 1.82 83.88-62 105.76-41.94 165.93s81 15.3 104.71 113.76c23.7 98.47-57.29 153.05-50 211.4s41.94 97.24 40.12 173.22c-1.36 56.51-103.93 231.58-103.93 231.58s-136.76-149.52-140.4-249.81c-3.46-95.12 64.61-86.21 68.25-175.56 3.65-89.35-129.51-101.27-64.61-213.42 13.68-23.64 48.81-46.69 48.81-97.74s-46.19-128.84-9.72-182.32c4.41-6.49 8.94-12.98 13.46-19.36z" fill="#50bfa5"/><path d="m736.53 1259.99c-7.29-58.35 73.7-112.94 50-211.4s-84.65-53.59-104.71-113.76 43.76-82.05 41.94-165.93c-.02-.84-.04-1.67-.07-2.5-1.64-43.56-36.75-70.47-73.12-71.34l-.17 2.26s-51.05 206.63-17.02 311.17c34.03 104.53 60.77 111.83 43.76 252.82-17.02 141-4.42 403.49-4.42 403.49s102.58-175.07 103.93-231.58c1.83-75.99-32.82-114.88-40.12-173.23z" fill="#3c8f7c"/><path d="m759.54 1732.1h-222.15c-28.29-26.67-45.53-63.4-44.9-103.69.32-20.35 4.38-38.09 12.84-55.5l286.42 3.32c7.92 17.7 12.16 37.13 11.85 57.48-.6 38.39-17.31 72.99-44.06 98.39z" fill="#f47458"/><path d="m1832.07 534.68h-216.22c-20.61 0-37.32-16.71-37.32-37.32v-74.65c0-20.61 16.71-37.32 37.32-37.32h216.22c20.61 0 37.32 16.71 37.32 37.32v74.65c.01 20.61-16.7 37.32-37.32 37.32z" fill="#fae0b2"/><path d="m1671.2 514.09-28.32 84.95 82.37-84.95z" fill="#fae0b2"/><path d="m1663.91 465.72c0 7.51-6.52 13.6-14.57 13.6-8.04 0-14.57-6.09-14.57-13.6s6.52-13.6 14.57-13.6 14.57 6.09 14.57 13.6z" fill="#fff"/><path d="m1738.38 465.72c0 7.51-6.52 13.6-14.57 13.6s-14.57-6.09-14.57-13.6 6.52-13.6 14.57-13.6c8.04 0 14.57 6.09 14.57 13.6z" fill="#fff"/><path d="m1812.84 465.72c0 7.51-6.52 13.6-14.57 13.6s-14.57-6.09-14.57-13.6 6.52-13.6 14.57-13.6 14.57 6.09 14.57 13.6z" fill="#fff"/><path d="m731.2 1285.12s120.87-36.27 125.74-35.36c4.78.89-14.21 41.2-11.83 54.22.76 4.18-103.45 63.77-126.61 59.38-25.25-4.79-122.32-88.29-132.68-106.4-11.57-20.24-31.83-70.71-18.34-89.72 6.15-8.66 21.05-20.2 31.39-17.76 41.12 9.7 85.52 82.53 132.33 135.64z" fill="#355389"/><path d="m737.84 1423.69c-.79-3.59-25.87-61.92-27.15-67.87-16.66-77.74-80.78-191.42-110.47-206.05-4.8-2.4-39.07-2.62-39.07-2.62l17.71 8.76c20.18 18.43 42.77 39.76 57.17 63.55 41.78 69 70.24 227.94 74.04 227.67 4.25-.31 29.53-15.48 27.77-23.44z" fill="#466eb6"/><path d="m698.15 1425.85c-58.69-34.13-67.92-114.72-92.73-158-30.38-53-75.19-58.77-152.31 37.3-94.55 117.77-46.44 354.7 84.12 430.63l313.07-.67c64.5-23.22 93.17-57.28 116.34-114 103.04-252.26-137.93-119.34-268.49-195.26z" fill="#f7cc7f"/><path d="m837.01 1687.48s-2.18 38.58-2.2 38.66c-.8 4.9-3.96 17-3.96 21.45 0 16.73 74.43-14.2 57.75-21.61-1.51-.67-11.76-9.53-12.26-15.23-.77-8.77-.36-22.73-.36-22.73z" fill="#f7a491"/><path d="m887.52 1725.25s-17.47 5.12-26.42 6.4-20.75-9.49-27.08-6.58c-5.17 2.38-7.19 19.62-7.88 28.35-.22 2.77 1.89 5.17 4.66 5.31 20.58 1.07 98.84 4.68 119.14-1.2 10.53-3.05-26.69-20.36-62.42-32.28z" fill="#07345a"/><path d="m1046.16 1648.8s-17.47 5.12-26.42 6.4-20.75-9.49-27.08-6.58c-5.17 2.38-7.19 19.62-7.88 28.35-.22 2.77 2.21 5.9 4.97 6.17 22.83 2.25 98.52 3.82 118.83-2.06 10.53-3.05-26.7-20.37-62.42-32.28z" fill="#07345a"/><path d="m972.82 1617.53s20.93 29.44 22.89 35.94 50.46 11.26 50.46-4.67c0-.21-15.04-12.44-19.29-18.01-7.1-9.32-23.67-40.46-23.67-40.46z" fill="#f7a491"/><path d="m522.14 976.26s-23.62-15.97-33.61 12.01c0 0-13.34-4.04-19.05 9.67 0 0-22.88-1.72-21 31.51 0 0-11.5.36-10.06 13.8s10.04 20.72 10.04 20.72-5.17 6.02.31 17.46c4.66 9.73 13.49 9.42 13.49 9.42s6.11 16.78 14.76 20.33 18.3-1.2 18.3-1.2 4.78 8.77 13.34 6.01 17.55-13.49 28.17-11.9 35.15-7.98 35.15-7.98 25.73-19.01 10.75-46.28c0 0 12.01-16.85-4.7-30.2 0 0 3.97-27.53-18.3-38.34s-37.59-5.03-37.59-5.03z" fill="#07345a"/><path d="m896.62 1393.27c-19.64-9.66-225.68 22.43-225.68 22.43l-24.7-39.38-80.43 18.25s-22.76 26.21-23.7 37.94c-3.05 37.98 14.36 101.84 33.99 108.05 69.92 22.11 220.24-23.08 241.28-27.91 0 0-.76 34.06 5.61 103.59 2.52 27.47 5.82 57.75 8.88 84.24 18.4-.04 36.8-.39 55.2-2.81.01-.01 29.19-294.74 9.55-304.4z" fill="#f47458"/><path d="m1027.22 1613.37c-35.25-89.03-111.74-263.75-139.46-268.66-36.34-6.44-216.86 71.05-216.86 71.05l183.15-3.82s1.01 1.81 8.98 40.2c6.22 29.92 75.11 135.29 114.39 193.66 18.13-8.19 36.08-15.76 49.8-32.43z" fill="#b75742"/><path d="m562.02 1147.81s-45.6-.52-50.45.55 3.83 186.12 9.76 255.17 15.44 79.41 15.44 79.41 65.04.25 109.98-13.93c46.73-14.75 57.84-69.04 57.84-69.04s-42.33-124.15-59.3-162.62c-10.85-24.61-32.54-52.3-54.5-74.86-12.37-12.7-28.77-14.68-28.77-14.68z" fill="#fff"/><path d="m549.2 1114.14 9.15 24.97s15.96 35.36 7.54 44.71c-8.42 9.36-52.51-35.89-52.51-35.89l-10.97-65.96z" fill="#f7a491"/><path d="m505.97 1103.34c13.17 20.42 35.85 29.74 50.99 31.96l-7.76-21.17-46.78-32.17z" fill="#f47458"/><path d="m510.38 1008.35c18.74-11.46 43.34-2.76 51.06 17.46 3.35 8.79 7.1 19.95 10.08 32.4 7.18 29.94-1.92 62.62-15.56 65.64-13.65 3.01-55.66-8.11-66.45-50.48-6.66-26.15 1.2-52.99 20.87-65.02z" fill="#f7a491"/><path d="m500.31 1074.53c1.46 6.63-1.74 12.98-7.17 14.17-5.42 1.2-11-3.21-12.47-9.84-1.46-6.63 1.74-12.98 7.17-14.17 5.42-1.2 11 3.21 12.47 9.84z" fill="#f7a491"/><path d="m513.29 1147.73s-52.95-2.1-65 9.03c-7.66 7.08 7.86 77.93 7.86 77.93s43.19 82.68 49.47 131.04c10.43 80.33 19.94 129.68 24.06 132.34 23.8 8.54 102.47-7.71 105.74-17 36.11-102.64-122.13-333.34-122.13-333.34z" fill="#466eb6"/><path d="m769.37 1317.86 35.15-148.43c.91-3.84 4.34-6.56 8.29-6.56h63.83c5.59 0 9.67 5.3 8.24 10.71l-38.77 146.06c-.96 3.62-4.16 6.18-7.9 6.33l-60.21 2.37c-5.64.22-9.93-5-8.63-10.48z" fill="#184655"/><path d="m827.61 1314.02c-2.7.52-7.17 1.49-10.26 2.62-3.34 1.22-6.79 1.3-9.75 1.91-5.88 1.21-10.15 2.17-10.06 1.91.11-.34-1.21-.9 1.85-2.07 3.69-1.4 12.17-2.7 17.43-5.16 2.99-1.4 9.4-3.95 9.4-3.95s8.99-5.62 8.84-6.23c-.81-3.34-8.03-1.18-11.84 1.23-3.21.33-9.89 3.21-9.89 3.21s-14.78 2.88-15.19.85c-.17-.86 8.7-3.68 16.97-7.77 7.68-3.8 14.84-8.85 14.33-10.43-.87-2.69-9.84.65-9.84.65s-6.17 2.66-8.28 3.4c-2.48.86-10.09 2.88-10.09 2.88s-26.82 5.84-27.03 3.88c-.22-1.95 1.28-7.23 2.82-8.15s5.25-1.18 6.8-2.1c1.54-.92 2.77-3.4 1.79-5.32s-10.13-.22-10.13-.22-7.43 1.43-11.44 4.79c-13.87 11.64-11.38 13.4-13.2 14.85-2.15 1.71-38.76 5.72-38.76 5.72s-107.83 12.52-113.67 13l3.78 35.9c6.42.66 130.87-21.03 143.64-23.57 0 0 16.28 2.43 26.56 3.62 10.28 1.2 20.66-2.15 23.62-2.25.44-.01 10.27-.9 22.14-5.14 10.23-3.65-1.1-4.73-1.1-4.73s-20.13 3.47-20.11 1.88c.02-1.23 11.11-2.49 22.47-6.41 2.92-1.01 5.8-2.02 8.44-2.96 6.91-2.49 7.41-7.31-.24-5.84z" fill="#f8a492"/><path d="m582.28 1305.94s125.78-.9 130.65 0c4.78.89 6.13 33.16 8.5 46.19.76 4.18-132.58 19.11-155.74 14.72-25.25-4.79-88.85-74.66-103.58-98.23-12.36-19.78-38.73-70.1-32.18-92.13 3.96-13.31 24.54-28.34 35.78-24.85 44.81 13.89 116.57 154.3 116.57 154.3z" fill="#86b1f2"/><path d="m867.24 1246.71c2.42-.94 5.14.5 5.64 3.05.51 2.61.52 5.73-1.47 7.72-3.96 3.96-30.66 6.92-30.66 2.97-.01-3.04 18.11-10.47 26.49-13.74z" fill="#f7a491"/><path d="m873.12 1258.31s3.07 9.85.77 10.03-30.92 4.19-32.34.83c-1.42-3.37 27.79-12.72 31.57-10.86z" fill="#f7a491"/><path d="m874.29 1269.36s1.1 4.36-1.11 7.07-29.04 2.77-30.29-1.42c-1.25-4.18 30.25-8.85 31.4-5.65z" fill="#f7a491"/><path d="m868.17 1279.41s.56 3.33-.55 4.97-20.97 2.69-23.56-1.17c-2.6-3.87 21.16-7.76 24.11-3.8z" fill="#f7a491"/><path d="m2346.51 807.92c27.41-1.55 43.01 31.41 24.49 51.84-3.33 3.67-5.12 8.47-5.24 13.42l-.4 17.04c-.11 4.69-3.81 8.52-8.5 8.78l-10.39.59c-4.69.26-8.79-3.12-9.43-7.77-2.33-16.98-1.96-23.41-9.03-29.63-20.7-18.22-8.92-52.72 18.5-54.27z" fill="#f7cc7f"/><path d="m2358.08 879.23c-1.37-13.77-2.36-28.97-2.54-34.67-5.06.64-10.22.33-15.17-.89 1.7 11.35 3.11 22.84 4.22 34.23l-1.47.14c-1.12-11.58-2.57-23.26-4.3-34.79-2.99-.86-6.47-2.04-8.11-4.63-.77-1.21-1.01-2.83-.63-4.22 1.02-3.71 5.54-3.74 7.78-.67 1.49 2.03 1.73 4.78 2.28 8.35 5 1.32 10.24 1.66 15.38.99.01-2.89.39-5.61 1.97-7.91 5.55-8.06 14.87 6.64-.47 9.18.13 4.46 1.08 20.07 2.54 34.74zm.62-43.23c-1.32 1.92-1.68 4.29-1.71 6.85 3.33-.58 5.44-1.72 6.46-3.48 1.72-2.94-1.77-7.71-4.75-3.37zm-26.01-2.78c-1.52.77-1.66 3.15-.74 4.61 1.32 2.08 4.18 3.06 6.62 3.81-.43-2.83-.66-5.33-1.91-7.04-.88-1.2-3.81-1.46-3.97-1.38z" fill="#fff"/><path d="m2365.78 872.75c-.01.14-.02.28-.03.42l-.4 17.04c-.11 4.7-3.81 8.52-8.5 8.78l-10.39.59c-4.69.26-8.79-3.12-9.43-7.77-1.04-7.55-1.54-13.01-2.4-17.3z" fill="#3c8f7c"/><g fill="#fae0b2"><path d="m2363.42 791.49 4.69-16.2c.45-1.57-.45-3.21-2.02-3.66s-3.21.45-3.66 2.02l-4.69 16.2c-.45 1.57.45 3.21 2.02 3.66 1.58.46 3.21-.46 3.66-2.02z"/><path d="m2388.49 822.55 16.9-5.35c1.56-.49 2.42-2.15 1.92-3.71-.49-1.56-2.15-2.42-3.71-1.92l-16.9 5.35c-1.55.49-2.42 2.15-1.92 3.71.49 1.55 2.15 2.41 3.71 1.92z"/><path d="m2417.37 871.59c.87-1.38.45-3.21-.93-4.07-5.17-3.24-10.68-6-16.37-8.21-1.52-.59-3.23.17-3.82 1.69s.17 3.23 1.69 3.82c5.34 2.07 10.51 4.66 15.36 7.7 1.37.86 3.2.45 4.07-.93z"/><path d="m2320.66 800.21c1.45-.75 2.01-2.54 1.25-3.99-3.58-6.87-6.46-14.14-8.55-21.6-.44-1.57-2.07-2.49-3.64-2.05s-2.49 2.07-2.05 3.64c2.2 7.86 5.23 15.51 9 22.74.76 1.46 2.55 2.01 3.99 1.26z"/><path d="m2307.85 826.33c.12-1.63-1.1-3.04-2.73-3.16l-19.12-1.4c-1.63-.12-3.04 1.1-3.16 2.73s1.1 3.04 2.73 3.16l19.12 1.4c1.62.12 3.04-1.1 3.16-2.73z"/><path d="m2289.05 880.57c.26-.06.51-.15.76-.28 5.82-3.13 11.32-6.9 16.34-11.19 1.24-1.06 1.38-2.93.32-4.17s-2.93-1.38-4.17-.32c-4.7 4.02-9.85 7.55-15.3 10.48-1.44.77-1.98 2.56-1.2 4 .65 1.19 1.99 1.76 3.25 1.48z"/></g><path d="m2536.21 1231.9c-65.61-84.24-104.79-80-132.2-34.74-22.38 36.96-31.82 106.4-83.59 134.89-115.17 63.39-265.86 41.33-205.58 221.06 16.85 50.23 42.79 46.26 54.81 46.62l292.95-.29c115.18-63.39 154.05-264.27 73.61-367.54z" fill="#f7cc7f"/><path d="m2474.59 1075.34c6.74-32.96-8.77-65.63-38.4-77.9.2-18.75-7.19-37.57-19.96-50.41-25.19-25.33-77.08-36.28-95.61-3.99-24.46 13.88-22.92 31.12-15.62 58.51-23.71 24.63-15.04 64.95 19.53 86-.55 27.64-1.27 69.31 22.83 81.12 5.78 2.83 14.83 6.79 15.98 8.01-1.51-1.43 17.84 52.62 77.97 27.88 61.33-25.24 73.26-96.3 33.28-129.22z" fill="#355389"/><path d="m2219.68 1297.75c4.83-4.76 13.32-8.99 12.83-9.69-2.01-2.84-23.01 18.88-21.64 12.76.76-3.41 15.8-21.14 21.13-21.81 5.17-.65 38.66-5.93 38.66-5.93l77.38-51.43s3.83-60.83-12.59-101.81c17.96-5.48 21.46-6.65 39.92-5.22 10.53 41.57 21.86 111.59 8.18 131.99-5.75 8.58-106.33 41.78-106.33 41.78s-21.76 8.19-25.81 8.45c-3.08.19-11.55-.51-15.68.13-9.4 1.46-21.04 15.44-21.84 13.83-.6-1.17.86-8.18 5.79-13.05z" fill="#f48c7f"/><path d="m2326.04 1114.98c7.27-13.44 14.75-24.11 14.75-24.11 7.54-13.45 27.01-20.25 27.01-20.25s6.51.13 13.99.5c.46 1.25.94 2.13 1.41 2.49 2.81 2.12 18.92-.62 29.33 6.47 34.88 30 25.23 175.39 22.49 221.31l-87.07.37s-5.76-98.17-27.34-123.56c-15.02-17.66-5.35-43.28 5.43-63.22z" fill="#f47458"/><path d="m2302.17 1626.51c-.93-1.72-13.04-30.91-22.92-43.91-14.36-18.88-138.48-189.8-133.37-231.4 2.23-18.17 56.01-33.57 62.4-34.67 34.23 4.59-1.73 34.06 23.98 58.28-16.72 5.72-26.57 12.86-22.96 17.56 14.47 18.82 91.3 170.47 94.64 172.43 14.88 8.72 20.72 4.68 20.72 4.68s-3.43 85.3-10.52 82.61c-7.11-2.7-1.44-6.19-11.97-25.58z" fill="#f79c8d"/><path d="m2330.93 1570.01-14.35 85.94c-3.23 11.12-8.66 11-10.05 9.51-2.86-3.07-4.17-26.01-4.52-39.06 6.47-19.91 5.86-57.38 1.87-61.61 9.77.18 27.04 3.31 27.05 5.22z" fill="#b75742"/><path d="m2279.62 1359.46c-19.26-31.93-18.23-27.89-51.75-42.32-13.43 5.4-58.38 33.57-64.08 38.78l71.49 51.85c-2.33-5.81 22.56-34.6 44.34-48.31z" fill="#f7a491"/><path d="m2373.92 1021.44s5.84 41.84 9.92 52c4.08 10.17-22.42 31.91-44.47 38.51s6.74-22.46 5.83-33.33-4.92-62.33-4.92-62.33z" fill="#f7a491"/><path d="m2341.38 1031.06c-.64-8.51-1.11-14.76-1.11-14.76l33.65 5.14s.85 4.92 1.79 11.86c-13.65 7.94-25.91 5.44-34.33-2.24z" fill="#f47458"/><path d="m2363.37 945.02s13.26 3 21.45 15.54 13.81 49.46-13.17 66.69-47.95-7.14-48.3-30.92 4.73-55.5 40.02-51.31z" fill="#f7a491"/><path d="m2317.18 988.89c2.3 5.74 6.87 9.3 10.2 7.95s4.17-7.09 1.86-12.82c-2.3-5.74-6.87-9.3-10.2-7.95-3.33 1.34-4.16 7.08-1.86 12.82z" fill="#f7a491"/><path d="m2385.25 993.61c-1.96 6.18-.17 12.27 4 13.59 4.16 1.33 9.12-2.61 11.08-8.79s.17-12.27-4-13.59c-4.16-1.33-9.12 2.61-11.08 8.79z" fill="#f7a491"/><path d="m2283.55 1304.23c14.9-1.37 64.18-6.37 64.18-6.37l87.44-11.75s15.45 36.92 16.06 60.08c1.06 40.52-36.23 74.67-68.13 72.71-18.98-1.17-126.45-3.52-147.43-11.3-4.33-33.01-9.32-68.79-31.57-92.54 35.63-4.9 59.24-8.98 79.45-10.83z" fill="#466eb6"/><path d="m2282.44 1609.85c-2.4-2.48-21.58-133.69-33.15-188.77-2.79-13.26-11.22-24.64-23.11-31.13l-62.38-34.04c-21.61 19.76 79.22 241.71 88.44 264.97 6.35 16.02 10.35 49.11 10.81 51.12 5.19 22.69-1.57 24.62 4.88 29.38s35.38-78.09 35.38-78.09-8.22-.34-20.87-13.44z" fill="#f7a491"/><path d="m2301.22 1309.94c.01 3.3-3.03 5.99-6.78 6l-105.94.25c-3.75.01-7.52-3.24-8.74-7.25l1.93 1.29c-.01-3.3 3.03-5.99 6.78-6l105.94-.25c3.76-.02 6.81 2.65 6.81 5.96z" fill="#355389"/><path d="m2189.57 1314.02c.63 0 1.27-.04 1.91-.12 5.48-.69 9.08-4.19 8.03-7.82l-40.43-139.91c-1.05-3.62-6.34-6-11.83-5.31-5.48.69-9.08 4.19-8.03 7.82l40.43 139.91c.93 3.2 5.17 5.43 9.92 5.43z" fill="#355389"/><path d="m2220.77 1295.06c6.06-3.03 15.45-4.41 15.2-5.24-1.03-3.32-27.97 13.85-24.77 8.46 1.78-3 21.82-18.24 27.1-17.22 5.12.99 38.59 6.34 38.59 6.34l86.15-31.14s16.43-53.58 13.51-97.63c18.77.36 31.89 3.48 48.99 10.55-2.87 42.79-13.8 112.87-33.13 128.03-8.13 6.38-114.04 6.77-114.04 6.77s-23.23 1.05-27.16.03c-2.98-.77-10.82-4.07-14.95-4.74-9.39-1.52-24.79 8.16-25.05 6.38-.19-1.27 3.37-7.49 9.56-10.59z" fill="#f7a491"/><path d="m2370.56 1111.92c1.2-13.54 2.86-27.18 16.66-33.03 8.56-3.63 18.78-2.3 26.53 2.68 9.23 5.92 12.86 16.72 14.04 27.2 2.68 23.8 3.93 48.65 2.33 72.58-17.1-7.08-40.37-3.33-59.14-3.69-4.18-20.98-1.98-48.1-.42-65.74z" fill="#b75742"/><path d="m2233.57 1282.28c-14.72 3.77-13.9 3.49-14.49 3.86-10.4 6.55-9.58 9.4 6.39 2.55.4-.17.84-.26 1.28-.25l7.58.08c2.94.03 4.34-3.61 2.13-5.55-.79-.69-1.87-.95-2.89-.69z" fill="#f7a491"/><path d="m2262.4 1667.16s.63 10.41-2.87 18.75-16.87 11.48-13.64 15.79 29.06 0 29.06 0l29.89-73.1c1.22-2.71.53-5.9-1.71-7.86-3.59-3.15-10.17-7.62-20.55-10.73.01 0 1.62 45.85-20.18 57.15z" fill="#f47458"/><path d="m1764.52 1125.43c18.25-5.26 18.74-2 21.05-2.74 2.74-.87 24.81-30.77 24.81-30.77s65.7-87.64 69.07-92.51l20.72-113.4 62.25-.49s-26 122.47-28.55 128.53-106.66 113.11-115.48 122.85c0 0-5.7 15.82-9.63 25.61s-12.34 16.94-13.9 19.49c-.23.38-5.98 8.52-16 16.45-8.64 6.84-4.07-3.81-4.07-3.81s13.37-15.69 11.8-16.62c-1.21-.72-7.94 8.32-17.41 15.98-2.43 1.97-4.84 3.91-7.08 5.67-5.86 4.62-10.82 2.16-5.58-3.7 1.85-2.07 5.01-5.43 7.65-7.48 2.85-2.21 4.64-5.21 6.7-7.46 4.1-4.46 7.15-7.65 6.85-7.74-.39-.11-.28-1.61-2.94.4-3.2 2.42-8.67 9.12-13.69 12.29-2.85 1.8-8.53 5.93-8.53 5.93s-9.95 4.57-10.48 4.06c-2.86-2.72 2.83-7.79 7.08-9.71 1.92-2.63 8.04-6.8 8.04-6.8s10.14-11.32 8.36-12.9c-.76-.67-7.91 5.46-16.01 10.31-7.52 4.5-16 7.78-17.29 6.38-2.19-2.38 5.52-8.29 5.52-8.29s5.66-3.84 7.42-5.27c2.07-1.67 7.82-7.18 7.82-7.18s19-20.16 17.2-21.52c-1.8-1.37-7.69-3.21-9.36-2.4s-3.75 3.93-5.42 4.74-4.7.41-6.09-1.61c-1.39-2.01 4.81-9.08 4.81-9.08s5.1-5.69 10.36-7.21z" fill="#f48c7f"/><path d="m1867.87 1694.34s2.21 39.13 2.23 39.21c.81 4.97 4.02 17.24 4.02 21.76 0 16.96-75.48-14.4-58.57-21.92 1.53-.68 9.55-5.83 10.06-11.6.78-8.9 2.74-26.89 2.74-26.89z" fill="#f7a491"/><path d="m1815.74 1733.22s17.72 5.19 26.8 6.49 21.04-9.63 27.46-6.68c7.07 3.25 6.35 35.23 6.35 35.23s-94.6 5.58-121.32-3.03c-10.58-3.41 24.48-19.92 60.71-32.01z" fill="#184655"/><path d="m2034.17 1698.09s2.21 39.13 2.23 39.21c.81 4.97 4.02 17.24 4.02 21.76 0 16.97-75.48-14.4-58.57-21.92 1.53-.68 11.93-9.67 12.44-15.44.78-8.9.37-23.05.37-23.05z" fill="#f7a491"/><path d="m1982.04 1736.98s17.72 5.19 26.8 6.49 21.04-9.63 27.46-6.68c7.07 3.25 7.35 32.48 7.35 32.48s-101.13 7.33-124.91.45c-10.68-3.09 27.07-20.65 63.3-32.74z" fill="#184655"/><path d="m1914.56 1133.29-31.91 13.77-67.13 320.58 2.72 240.33 53.81 1.25s25.03-210.22 25.03-226.51 115.93-285.1 115.93-285.1z" fill="#355389"/><path d="m1939.19 1150.93s23.51 247 23.51 288.63c0 41.64 19.06 274.66 19.06 274.66l53.94-.31s3.89-71.03 9.67-175.52c.91-16.37-1.17-49.39 0-66.33 8.39-121.85 24.99-236.56 17.06-282.03-1.28-7.32-3.67-26.46-8.34-31.29-35.32-36.55-114.9-7.81-114.9-7.81z" fill="#466eb6"/><path d="m1873.39 956 65.27-4.37s3.22-58.34 3.22-86.18c0-33.77 10.29-83.55 6.27-82.61-11.29 2.63-30.79 13.02-39.84 25.63-31.32 43.63-34.92 147.53-34.92 147.53z" fill="#3c8f7c"/><path d="m2028.03 781.55s37.22 5.18 47.02 12.37c11.03 8.1 23.28 26.23 23.28 26.23s-45.7 216.02-45.78 252.37c-.06 28.12 9.89 97.17 9.89 97.17s-138.1 8.72-190.4-11.93c0 0 16.52-82.12 16.52-103.69s19.76-217.66 24.25-231.35c4.08-12.43 11.54-34.75 36.77-40.26 25.23-5.5 78.45-.91 78.45-.91z" fill="#50bfa5"/><path d="m2017.87 723.39 9.21 60.32s-33.65 71.82-53.73 65.59c-16.85-5.23-6.48-68.78-6.48-68.78s9.19-34.13 6.43-51.21c-2.76-17.07 44.57-5.92 44.57-5.92z" fill="#f7a491"/><path d="m1973.29 729.32c-2.75-17.08 44.57-5.93 44.57-5.93l.76 5c-1.38 3.35-3.08 6.21-5.13 8.41-10.57 11.3-27.1 18.09-41.38 18.6 1.44-9.21 2.31-19.07 1.18-26.08z" fill="#f47458"/><path d="m2025.63 638.05c1.34-.48 10.72 68.7-7.09 87.74s-52.51 25.27-64.95 10.27c-13.77-16.58-13.07-90.94 14.61-110.52 27.7-19.58 57.43 12.51 57.43 12.51z" fill="#f7a491"/><path d="m1978.75 588.53c21.4 4.33 35.26 17.33 40.36 22.86 9.72 1.14 22.93 6.47 36.56 28.91 16.77 27.58 4.38 58.14-15.14 73.13s-19.3 32.4-19.3 32.4l-3.04-9.04c-2.28-6.79-3.21-13.98-2.45-21.1.46-4.27 1.38-8.89 3.16-12.69 4.7-10.01-10.09-16.67-14.23-25-3.19-6.41-3.35-21.09-8.38-31.69l-6-8.09s-13.85-10.71-27.41-7.69c-13.54 3.03-11.59-47.56 15.87-42z" fill="#13375b"/><path d="m2005.59 690.32c-.14 8.44 3.72 15.35 8.63 15.43s9-6.69 9.14-15.13-3.72-15.35-8.63-15.43c-4.91-.09-9 6.69-9.14 15.13z" fill="#f7a491"/><path d="m1933.11 1001.28-.89 5.15c-.46 2.65-2.98 4.43-5.63 3.97l-106.74-18.49c-2.65-.46-4.43-2.98-3.97-5.63l.89-5.15c.46-2.65 2.98-4.43 5.63-3.97l106.74 18.49c2.66.46 4.43 2.98 3.97 5.63z" fill="#13375b"/><path d="m2084.43 809.37c-12.52-.36-23.6 82.24-15.66 90.39s9.45 109.89 9.45 109.89l-118.14-2.94-.02.04c-2.3-1.54-27.05-18.17-30.59-21.8-3.71-3.81-21.75-1.91-26.52 3.33s10.61.95 14.85 3.81-3.18 10-3.18 10-29.94 4.34-35.78-1.85-21.43-16.68-23.55-10.48c-1.09 3.2 6.95 12.88 11.48 16.94-5.65-4.23-12.42-8.73-14.74-7.94-4.24 1.43-2.48 6.83-.18 8.42s26.07 19.74 29.78 21.01c3.63 1.24 58.91 2.61 68.46 4.72 0 0 155.8 35.48 164.66 33.26 7.77-1.94 15.54-51.81 15.54-90.01 0-38.19-6.72-165.66-45.86-166.79z" fill="#f7a491"/><path d="m2068.19 790.52s21.79 5.02 44.31 30.32c20.47 23.01 33.37 151.84 33.37 151.84l-70.69 11.43-5.65-62.32-18.89-28.51z" fill="#50bfa5"/><path d="m872.63 1052.27h-170.91c-16.29 0-29.5-13.21-29.5-29.5v-59c0-16.29 13.21-29.5 29.5-29.5h170.91c16.29 0 29.5 13.21 29.5 29.5v59c0 16.29-13.21 29.5-29.5 29.5z" fill="#fae0b2"/><path d="m745.46 1035.99 72.79 115.4-30.06-115.4z" fill="#fae0b2"/><path d="m2175.86 430.66-7-16.55-17.6-3.62c-2-.41-2.67-2.94-1.12-4.28l13.57-11.77-2-17.85c-.23-2.03 1.98-3.44 3.73-2.39l15.39 9.27 16.36-7.42c1.86-.85 3.89.81 3.42 2.81l-4.06 17.5 12.11 13.27c1.38 1.51.43 3.95-1.61 4.12l-17.9 1.54-8.88 15.62c-1 1.79-3.61 1.63-4.41-.25z" fill="#9bc1f9"/><path d="m1259.37 364.04-5.55-13.11-13.95-2.87c-1.59-.33-2.11-2.33-.89-3.4l10.76-9.33-1.58-14.15c-.18-1.61 1.56-2.73 2.95-1.89l12.19 7.35 12.97-5.88c1.48-.67 3.08.65 2.71 2.22l-3.22 13.87 9.6 10.52c1.09 1.2.34 3.13-1.28 3.27l-14.19 1.22-7.04 12.38c-.78 1.41-2.85 1.29-3.48-.2z" fill="#f7cc7f"/><path d="m2376.35 374.41-4.76 19.18-31.7-4.26-10.42 27.18-24.25.7.35 12.27 32.43-.93 9.88-25.76 32.97 4.43 7.17-28.86z" fill="#f48c7f"/><path d="m1373.77 388.99-4.77 19.18-31.7-4.25-10.42 27.18-24.24.69.35 12.27 32.43-.93 9.87-25.75 32.98 4.42 7.17-28.86z" fill="#466eb6"/><path d="m1601.61 331.17-17.89 8.41-16.7-27.28-27.66 9.06-15.83-18.37-9.3 8.01 21.17 24.58 26.22-8.59 17.37 28.38 26.91-12.65z" fill="#f48c7f"/><path d="m2170.77 308.86-28.97 7.91-6.24-35.1 9.48-1.69 4.39 24.73 18.8-5.13z" fill="#50bfa5"/><path d="m1506.83 477.4-83.55.24c-6.52.02-11.82-5.25-11.84-11.78l107.17-.31c.02 6.53-5.26 11.83-11.78 11.85z" fill="#fae0b2"/><path d="m1509.63 424.19c-9.35.03-16.94 6.05-16.92 13.43s7.65 13.36 17 13.33 16.94-6.05 16.92-13.43-7.65-13.36-17-13.33zm.06 20.73c-5.92.02-10.94-3.33-10.95-7.32s4.98-7.36 10.91-7.38c5.92-.02 10.94 3.33 10.95 7.32.01 3.98-4.99 7.36-10.91 7.38z" fill="#fae0b2"/><path d="m1506.39 412.32c.1 33.62-19.22 60.93-43.17 61-23.94.07-43.42-27.12-43.52-60.74-.01-4.27 19.38-7.78 43.32-7.85 23.94-.08 43.36 3.33 43.37 7.59z" fill="#fae0b2"/><path d="m1506.39 412.32c.01 4.27-19.38 7.78-43.32 7.85s-43.35-3.33-43.37-7.6c-.01-4.27 19.38-7.78 43.32-7.85s43.36 3.34 43.37 7.6z" fill="#f7cc7f"/></svg>