<svg enable-background="new 0 0 3200 2000" viewBox="0 0 3200 2000" xmlns="http://www.w3.org/2000/svg"><path d="m327.4 1756.8s-199.4-223.7-100.8-655.7c62-271.7 325.1-439.1 671.3-393.5 320.5 42.2 315.2-127.2 595.6-289 599.9-345.9 1467.6-199 1260 579.1-100.5 376.6 316.1 382.6 109.1 759z" fill="#ebf3fa"/><path d="m2027.2 348.2-28-1.3h-.7c-3.4-.1-6.4 2.3-6.9 5.6l-3.6 23.1c-.1.4-.2.8-.3 1.1-.8 2.5-3.1 4.3-5.7 4.4-15.5 1.3-30.6 5.6-44.4 12.8-.6.3-1.2.5-1.8.6-2.3.4-4.7-.4-6.3-2.1l-12.8-14.7c-1.7-1.9-4.4-2.7-6.8-2-.7.2-1.5.5-2.1 1l-23.4 16.4c-2.9 2-3.8 6-2 9l13.1 22.5c1.3 2.2 1.2 5-.3 7.1-2.1 3.1-4 6.2-5.8 9.5-3.4 6.2-6.2 12.5-8.3 18.9-.9 2.7-3.3 4.5-6.1 4.6l-26.4 1.1-1.3.1c-3.4.1-6.2 2.9-6.3 6.3l-1.3 28.6c-.1 3.5 2.3 6.5 5.8 7.1l25.7 4c2.9.4 5.1 2.7 5.6 5.5 2.1 11.9 6 23.5 11.7 34.2 1.4 2.7.8 6.1-1.6 8.1l-17.4 15.3c-2.7 2.3-3.1 6.2-1.1 9.1l16.5 23.6c2 2.8 5.7 3.6 8.6 1.9l26.4-15.3c2.2-1.3 5-1.2 7.2.2 2.7 1.8 5.4 3.4 8.3 5 5.4 3 10.9 5.4 16.4 7.5 2.5.9 4.3 3.2 4.4 5.9l1.2 31.7c.2 3.5 2.9 6.3 6.4 6.4l28.7 1.3c3 .1 5.8-1.8 6.7-4.7.1-.3.2-.6.2-.9l4.5-28.6c.4-2.7 2.3-4.8 4.9-5.5.2-.1.4-.1.7-.2.7-.1 1.4-.2 2.1-.4 8.2-1.4 16.2-3.7 24-6.8 2.6-1.1 5.6-.3 7.4 1.8l16.1 18.4c2.3 2.6 6.2 3.1 9 1.1l5.2-3.6 18.2-12.8c2.9-2 3.7-5.8 2-8.9l-12.9-22.1c-1.4-2.4-1.1-5.3.6-7.4 4.6-5.5 8.7-11.6 12.3-18.2 2.7-4.9 5-9.9 6.9-14.9l5.5-.2 22.7-.9c2.8-.1 5.2-2 6-4.6.2-.5.3-1.1.3-1.7l1.4-28.8c.1-3.4-2.3-6.4-5.7-6.9l-17.6-2.7c-3-.5-5.3-2.9-5.6-5.9-1.2-12.4-4.3-24.5-9.2-35.9-1.2-2.7-.5-5.8 1.7-7.6l22-19.3c2.4-2.2 2.9-5.8 1-8.5l-16.7-23.8c-2-2.8-5.8-3.7-8.7-1.9l-27.5 15.9c-2.4 1.4-5.3 1.2-7.5-.5-4.6-3.6-9.7-6.9-15-9.8-2.9-1.6-5.8-3-8.7-4.4-2.3-1-3.8-3.3-4-5.8l-1.2-30.4c-.1-3.7-2.9-6.5-6.4-6.7zm-87 112.7c4.5-6.3 10.2-12.2 17.4-17.2 1.5-1.1 3.3-2.1 5.3-3.1 8.5-4.2 20-7 28.2-6.6 63.1 3.3 85.6 78.2 35.9 115.7-.8.6-1.7 1.2-2.5 1.8-7.9 5.5-22.5 9.7-32.1 9.3-5.1-.2-9.9-.9-14.4-2-45.3-10.8-63.2-61.8-37.8-97.9z" fill="#dfedfb"/><path d="m2406.9 547.5-42.6-7.3-1-.2c-5.2-.9-10.2 2.3-11.6 7.3l-9.9 34.7c-.2.6-.4 1.1-.6 1.6-1.8 3.6-5.5 5.9-9.6 5.7-24-1-47.9 2.7-70.4 11.1-.9.3-1.9.5-2.8.6-3.6.2-7.2-1.5-9.3-4.5l-16.9-25c-2.2-3.3-6.2-4.9-9.9-4.4-1.1.2-2.3.5-3.5 1.1l-39.1 20.6c-4.8 2.5-6.9 8.4-4.8 13.5l15.7 36.9c1.5 3.6.8 7.8-1.8 10.8-3.8 4.3-7.3 8.7-10.7 13.4-6.4 8.8-11.8 18-16.4 27.4-1.9 3.9-5.9 6.3-10.3 5.9l-40.6-3.4-2-.2c-5.2-.5-10 3.2-10.9 8.4l-7.5 43.6c-.9 5.3 2.3 10.5 7.5 12l38.7 11.1c4.3 1.2 7.3 5.1 7.5 9.5 1 18.7 4.7 37.1 11.4 54.6 1.6 4.5 0 9.5-3.9 12.1l-29.6 20c-4.5 3.1-5.9 8.9-3.4 13.7l20.7 39.2c2.5 4.6 8.1 6.6 12.8 4.6l43.4-18.4c3.7-1.6 7.9-.9 11 1.7 3.7 3.2 7.6 6.3 11.7 9.2 7.7 5.6 15.6 10.4 23.7 14.6 3.7 1.9 5.9 5.8 5.5 9.9l-4.2 48.8c-.4 5.4 3.3 10.2 8.6 11.1l43.8 7.5c4.6.8 9.2-1.7 11.1-5.9.2-.4.4-.9.5-1.4l12.3-42.9c1.1-4 4.5-7 8.6-7.5.4-.1.7-.1 1.1-.1 1.1 0 2.1 0 3.2-.2 12.8-.6 25.6-2.6 38.1-5.9 4.1-1.2 8.6.5 11 4.2l21.2 31.2c3 4.4 8.9 5.9 13.6 3.4l8.7-4.6 30.3-16.1c4.8-2.5 6.8-8.2 4.7-13.2l-15.4-36.4c-1.7-3.9-.7-8.3 2.4-11.2 8-7.6 15.6-16.1 22.3-25.5 5-6.9 9.5-14.2 13.4-21.5l8.5.7 34.9 2.9c4.3.4 8.4-2 10.1-5.9.4-.8.6-1.6.8-2.5l7.6-43.9c.9-5.2-2.4-10.2-7.4-11.7l-26.4-7.5c-4.5-1.3-7.6-5.5-7.4-10.2.6-19.2-1.8-38.4-7.2-56.7-1.3-4.3.3-8.9 4-11.3l37.4-25.3c4.2-2.9 5.6-8.4 3.2-12.9l-21-39.6c-2.5-4.7-8.1-6.7-12.9-4.6l-45.2 19.1c-3.9 1.7-8.4.8-11.4-2.2-6.4-6.4-13.5-12.4-21.1-17.9-4.1-3-8.3-5.8-12.6-8.3-3.3-2-5.2-5.8-4.9-9.7l4-46.8c.3-5.1-3.5-9.9-8.8-10.9zm-154.8 155.9c8.1-8.8 18-16.7 30-23.1 2.5-1.4 5.5-2.6 8.7-3.8 13.8-4.8 32-6.9 44.5-4.7 96.1 17.1 116.2 136.2 32.7 184.2-1.4.8-2.8 1.5-4.2 2.3-13.2 7-36.3 10.6-51 8.1-7.7-1.3-15-3.3-21.7-5.7-67.2-25.2-84.9-106.9-39-157.3z" fill="#cde3fd"/><path d="m989.6 857.5c-2.4-59.5 47.5-85.9 98.4-85.9s106.5 13.2 111.3 92.3c3.1 50.9-24 82.2-102.2 82.2-26.3 0-46.8-4.2-62.5-11.6l-39 34.7 19.2-48c-17-15.8-24.2-38.1-25.2-63.7z" fill="#dfedfb"/><path d="m504.5 1754s-2.1-16.5-7-26.3-36.1-3.6-36.1-3.6-6.2 5.3-7.6 30.3z" fill="#233862"/><path d="m610.8 1753.8c-7.3-4.5-3.2-37.9-3.2-37.9s34.2-27.3 38.9-6.4 32.5 30.3 48.2 32.9c10.9 1.8 14.3 7.8 15.3 11.4z" fill="#233862"/><path d="m540 1511c1.4 7.7 2.3 13.9 2.5 18.4 3.2 61.9 52.1 203.6 60.9 206.9 13.5 5.1 34.9-5.8 46.1-9.3 4.6-1.5 7.8-6.1 6.7-10.9-24.2-111.5-33.2-272-36.4-367-1.6-47.9-9.8-80.9-9.8-80.9s-119.4-31.9-120.1 8.4c-.7 35.7 39.5 175.6 50.1 234.4z" fill="#213f7a"/><path d="m540 1511 79.8-161.9c-1.6-47.9-9.8-80.9-9.8-80.9s-119.4-31.9-120.1 8.4c-.7 35.7 39.5 175.6 50.1 234.4z" fill="#233862"/><path d="m566.6 1276.8-63.1 457.6s-27.7 6.7-49.3 1.3c0 0-18.5-243.3-16.9-302.2 1.5-58.8-13.3-157.4 3.4-168.3 16.5-10.9 125.9 11.6 125.9 11.6z" fill="#213f7a"/><path d="m436.2 1159.3-7.9 109.8c-.3 4.1 2.3 7.9 6.3 9.1 8.8 2.6 19 4.3 38.5 8.4 18.4 3.8 43.1 7.2 73.5 7.4 48.4.3 66.7-16.4 66.7-16.4 2.1 0-1.1-10.1-4-58.2-1-16.3-1.9-37-2.6-63.1-.6-23.5-1-51.4-1.1-84.5 0-39.8-61.7-82.7-62.8-82.7 0 5.7-9 16.3-23 17.2-16.5 1.1-36.8-7.2-36.8-16.7 0-.1-29.9 47.8-40.5 98.8-1.4 6.5-2.4 13.3-3.2 20.5v.3c-.1 1.3-.3 2.6-.4 4 0 .2 0 .5-.1.7-.1 1.2-.2 2.4-.4 3.7 0 .3-.1.7-.1 1.1-.1 1.1-.2 2.2-.3 3.4v.3c-.1.8-.1 1.7-.2 2.5 0 .6-.1 1.2-.1 1.8-.1 1-.1 2-.2 3 0 .5-.1 1-.1 1.5-.1.9-.1 1.9-.2 2.9 0 .4 0 .9-.1 1.3-.1 1.4-.1 2.8-.2 4.2v.3c-.1 1.4-.1 2.7-.2 4.1v1c-.1 1.3-.1 2.6-.2 3.9v.6c-.1 3.3-.2 6.5-.3 9.8v.2z" fill="#f99746"/><path d="m542.9 989.1s57.3-.5 71.1 18.9c13.8 19.3 44.1 123.5 28.3 158.1s-45.3-14.3-61.7-35.6c-16.4-21.2-37.7-141.4-37.7-141.4z" fill="#f99746"/><path d="m543.5 980.3v5.9s1.6 18.5-21.2 21.2-39.7-3.5-39.1-17.8c2.1-11.1 3.9-22.4 4.1-31.5.1-3.4-.2-7-.8-11.1l44.2-.9 13 2.1z" fill="#ffb27d"/><path d="m543.7 948.3-.2 32.1c-4.7 2.2-10 3.5-15.9 3.5-20.3 0-33.5-14.9-40.3-25.7.1-3.4-.2-7-.8-11.1l44.2-.9z" fill="#e2915a"/><path d="m483 939.9c5.1 27.6 40.8 26.7 56.2 25 4.3-.5 7.1-1 7.1-1 4.9-1.3 7.6-9 8.9-19.1 2.5-20-.7-49.2-4-56.7-5.1-11.3-14.6-23.5-50.5-14.7-36 8.8-24.3 31.1-17.7 66.5z" fill="#ffb27d"/><path d="m601.5 1066.7s22.2 49 21.5 63.7c0 0-11-.4-21.5 2.8-17.3 5.1 0-66.5 0-66.5z" fill="#ed7d2b"/><path d="m562.1 861.8s-15.8-1.2-34.4-9.3c-15.1-6.6-34.2.7-40.4 3.9.2-1 .6-2.4 1.5-3.7 0 0-2.8 2-3.2 4.7-.3.2-.4.4-.3.4 0 0-3.1-.6-5.2.3 0 0 1.4-.2 1.9.7 0 .1.1.2.2.2-23.6 11.4-25.8 48.7-18.2 57.3 9.1 10.4 20.1 33.8 20.1 33.8s4-5.5 2.3-14.7c-1.7-9.1 6.2-9.1 16.2-13.3s1.7-15.8 10.4-22.8c8.7-7.1 40.7-2.9 40.3-8.3 11.9-4.3 8.8-28 8.8-29.2z" fill="#233862"/><path d="m475.8 1158.4c9.4 37.6 110.6 57 133.6 61-1-16.3-1.9-37-2.6-63.1z" fill="#ed7d2b"/><path d="m498 1170.7c-1 0-22.5-3.2-26.4-5.1s-21.5-27-10-33.4c11.6-6.4 42.6 19.3 42.6 19.3z" fill="#ffb27d"/><path d="m629 1178.1s-83.3 4.5-139.2-7.4c0 0-1.4-16.2 16.2-23.3 0 0 87.1-18.5 108.1-13.3 20.9 5.1 14.9 44 14.9 44z" fill="#f99746"/><path d="m437.7 1112.7c17.3 20.8 39.9 37.9 64.8 41.9.2-.3 7.5-11.4 6.2-27.8-.6-7.6-3.1-16.3-9.1-25.5-1.8-2.8-3.5-6.2-4.9-9.9-13.6-34.7-11.6-101.6-11.6-101.6s-57.8 6-75.8 31.8c-11 15.6 3.1 58.2 30.4 91.1z" fill="#f99746"/><path d="m539.2 964.9c4.3-.5 7.1-1 7.1-1 4.9-1.3 7.6-9 8.9-19.1-9.2 2.3-13.4 9.3-15.1 12.3-.9 1.4-1 4.4-.9 7.8z" fill="#e2915a"/><path d="m562.5 980.5s20-32.9 4.4-34.4-21.8 9.1-24 12.9.6 21.3.6 21.3z" fill="#ffb27d"/><path d="m486.4 1125.6c.6 4.2 1.9 8 3.4 11.4 4.9 10.8 12.7 17.5 12.7 17.5 51.8-23.4 62.3-103.7 64.1-147.9.7-17.7 0-29.6 0-29.6-23.4-7.7-30 5.7-30 5.7s-27.6 65.6-41.9 108.6c-5.5 16.5-9 29.5-8.3 34.3z" fill="#f99746"/><path d="m437.7 1112.7c17.3 20.8 39.9 37.9 64.8 41.9 51.8-23.4 62.3-103.7 64.1-147.9 0 0-24.5 89-57.9 120.1-6 5.6-12.4 9.4-18.9 10.3 0 0-42.1-11.9-50.9-23.1-.7-.8-1-1.2-1.2-1.3z" fill="#ed7d2b"/><g fill="#c8dbf4"><path d="m2092.5 1399.4s32.9-38.6 1.9-63c0 0-22.7-13.7-41.1-12.5 0 0 26.3 43.8 17.8 48.2-8.4 4.4-25.8-50.9-25.8-50.9s-51.6-4.8-68.1 3.2c0 0 44.2 35.9 34.9 38.1s-56.9-33.1-56.9-33.1-47.9 8.3-45.3 37.6 19.2 38.2 26.4 37.4 49.7-17.1 50.7-11.2c.9 5.9-24.6 25.5-42.5 26.4 0 0 33.9 37.2 56.4 26.4 22.4-10.8 24.3-27.9 38.3-34.3s25.9-6.4 20.2.1-31.1 12.9-39.1 27.2c-8 14.2-15.1 23.8 8.1 20.2s61-20.7 62.6-40.2c1.5-19.6 1.5-19.6 1.5-19.6z"/><path d="m1933.3 1367.6s130.3-5.4 159.1 31.8c0 0 6.4 19 26 36.3l3.1 8.3s-22.6-23.7-30.7-25.2c.1.1 12.6-46.1-157.5-51.2z"/><path d="m2118.5 1435.7s28 20.6 30.1 57.5l-5.1.5s-9-38.2-25.2-53.1c-16.2-14.8.2-4.9.2-4.9z"/><path d="m2267.2 1297.5s-52.6-29.3-28.2-69.3c0 0 19.6-24.6 40.6-30.9 0 0-11.1 59.6.2 61s7.5-67.3 7.5-67.3 55.3-26.8 77-24.7c0 0-34.2 58.3-23 56.8s49.6-60.4 49.6-60.4 56.7-10.7 65.9 22.9-5.5 50.5-13.9 52.6-62.4 1.6-60.9 8.6c1.4 7 37.9 18.1 58.2 11.8 0 0-22.3 55.4-51.7 52.7s-38.6-20.9-56.8-22.3-31.5 3.6-22.4 8.5 39.9 1.5 54.7 14 26.7 20.2-.6 25.8c-27.3 5.7-76.4 2.3-86.2-18.7-10-21.1-10-21.1-10-21.1z"/><path d="m2430.9 1196.1s-147 48.1-163.7 101.4c0 0 .8 23.8-13.9 51.2v10.5s15.3-35.8 23.7-40.7c0 0-33-46.2 153.9-122.4z"/><path d="m2253.3 1348.7s-22.6 34.5-9.5 76.4l5.8-1.6s-5.8-46.2 6-69.5c11.8-23.2-2.3-5.3-2.3-5.3z"/></g><path d="m2183.4 1257.1s69.2-39 36.7-91.6c0 0-25.9-32.3-53.7-40.5 0 0 15 78.5.2 80.4s-10.4-88.7-10.4-88.7-73.1-34.9-101.7-32.1c0 0 45.5 76.5 30.7 74.7s-65.8-79.3-65.8-79.3-74.9-13.7-86.8 30.7 7.6 66.5 18.7 69.2 82.2 1.6 80.4 10.9-49.8 24.2-76.6 15.9c0 0 29.8 72.9 68.6 69.1s50.7-27.8 74.7-29.8c24-1.9 41.6 4.5 29.6 11s-52.6 2.3-72 18.8c-19.3 16.6-35 26.8 1 34s100.7 2.5 113.6-25.2 12.8-27.5 12.8-27.5z" fill="#d4e4f8"/><path d="m1966.9 1124.7s194.2 62.3 216.5 132.4c0 0-.8 31.4 18.7 67.4v13.9s-20.4-47.1-31.6-53.5c.1 0 43.3-61.1-203.6-160.2z" fill="#d4e4f8"/><path d="m2202.1 1324.5s30 45.3 13.1 100.7l-7.7-2.1s7.3-60.9-8.4-91.5c-15.7-30.5 3-7.1 3-7.1z" fill="#d4e4f8"/><path d="m2635.1 1746-568.8 1.4c-84.6-96.9-93.2-227.8 19.2-338.1 14.1-13.9 41.2-23.7 70.5-30.6 53.9-12.8 114.9-15.7 115.4-15.9.2-.1 32.3-26.1 51.6-49.5 60-72.6 111.1-66.4 111.1-66.4 61.2-11.9 113.3-15.3 152 6.2 35.8 20 60.1 61.5 69.1 137.7 1.7 14.4 2.9 30.1 3.5 47.1 2.2 61.8 14.4 116.9 21.6 163.5 10.4 67.4 10.5 117.2-45.2 144.6z" fill="#f99746"/><path d="m2555.7 1329.4c-37.1 20.2-41.2 86.8-99.4 104-58.1 17.2-156.7 15.6-212.6 76.2-54 58.5-113.4-90.4-87.8-132.3 53.9-12.8 114.9-15.7 115.4-15.9.2-.1 32.3-26.1 51.6-49.5 60-72.6 111.1-66.4 111.1-66.4 61.2-11.9 113.3-15.3 152 6.2 19.7 21.5 6.8 57.5-30.3 77.7z" fill="#ed7d2b"/><path d="m2327.9 1348.5s-186.2-2.4-211.1 13.4 25.6 268.1 25.6 268.1 48.2 1.4 52-11.3c0 0-9-118.2-1.5-138.7 7.5-20.4 2.8-48.8 2.8-48.8s94.2 14.1 124.1 7 8.1-89.7 8.1-89.7z" fill="#233862"/><path d="m2371 1218.1c0 .2-26.2 61.1-39 67.6s-59 59.6-68.9 58.7 11.6 8.1 11.6 8.1 80.8-37.3 85.5-39.6 29.5-43.1 32.9-63.7-22.1-31.1-22.1-31.1z" fill="#ffb27d"/><path d="m2200.3 1648.8c-6.2 12-7.6 34-9.4 41.5s-34.4 32.9-37.2 31.6c-7.1-3.2-.3-15.6 4-24.7.2-.4.3-.7.5-1.1 4.3-9.1.6-29.5 2.8-40.1 2.2-10.5-8.5-38.9-8.5-38.9l18-22.7s12.6 24 21.7 28.4c1.6.8 3.1 1.7 4.4 2.8 6.2 5.1 8.8 13.4 3.7 23.2z" fill="#ffb27d"/><path d="m2137.1 1719c-12.5 5.1-27.7 21.1-34 25.6s-47.5 2.9-48.8.1c-3.5-7.3 10.9-12.5 20.1-16.8.1-.1.3-.1.4-.2 9.1-4.6 19.2-22.1 27.6-28.6 8.5-6.6 18.6-35.2 18.6-35.2l28.4-5.8s-5.9 26.5-1.8 35.7c.4.9.7 1.8 1 2.6 2.7 8.7-.2 17.9-11.5 22.6z" fill="#ffb27d"/><path d="m2424.5 1191.1c-3.8-4.4 56.1-22.4 68.9 26.7 0 0 110.2-29.3 42.5-78.4-23.5-17-25.8-35.1-29.2-51.7s-26.8-64.3-67.4-40.6c0 0-18.6.1-30.3 10.2-26.8 23.1-56 170.2 15.5 133.8z" fill="#163560"/><path d="m2405.7 1357.1s-193.1 19.6-210.1 39.3-83.7 276.1-83.7 276.1 19.7 11 37.6.7c0 0 51.1-87 73.7-114.3s31.1-111.6 34.8-112.4 124.8 16.9 166.4-15.1c41.7-31.9-18.7-74.3-18.7-74.3z" fill="#2a4e96"/><path d="m2513.3 1181.9s-46.1-20.6-104.5-11.2c-11.9 1.9-22.7 5.8-31.2 19.9-12.1 19.9-17.7 30.5-17.7 30.5s1.2 9.2 17.6 16.5c-4.5 16.5 4.1 45.2-3.8 56.4s-57 38.8-59.4 54.2c-4.5 28.3 83.9 79.6 110.2 74.1 75.7-15.7 127.2-218.8 88.8-240.4z" fill="#f9ddbf"/><path d="m2487.2 1123.6s9.1-17.9 10.3-32.5c.9-10.5-8-48.1-45.8-39 0 0-11 2.2-20.8 10.2-7.8 6.4-18.7 19.7-2.1 51.7l4.6 10.9z" fill="#163560"/><path d="m2435.3 1183.9c-3.8 4-2.3 17.4 15.6 16.4 11.8-.7 36.9-15.2 34.6-25.2-1.1-4.8-10.1-17.1-12.3-45.4l-2.1.6-35.9 10.1s1.7 11.4 2.6 22.2c.8 9-.9 19.6-2.5 21.3z" fill="#ffb27d"/><path d="m2435.2 1140.4s1.7 11.4 2.6 22.2c20.4-2.2 29.7-21.6 33.3-32.3z" fill="#f4a269"/><path d="m2434.4 1156.9s46.9-11.8 39.1-40.9-7-50.3-37.3-43.9-33.1 19-32.9 29.3c.3 10.4 18.7 57.9 31.1 55.5z" fill="#ffb27d"/><path d="m2414.8 1077.1s15.8 30 45.5 33.3c17.4 1.9 22.2 13.4 22.2 13.4s-5.2-32.8-14-52.8c0-.1-48.4-12.8-53.7 6.1z" fill="#163560"/><path d="m2420.2 1081.1s-10.3 10.5-13.4 17.9c-4.7 10.9 4.5 34 8.2 39 0 0-21.8-37.1-14.5-53.1 7.7-17.1 19.7-3.8 19.7-3.8z" fill="#163560"/><path d="m2277 1351.4s-9.4 9.9-10.5 10.4c-6.2 2.9-14 1.2-17.8 2.2-3.8.9-3.1-1.4-.3-3.3s9.6-1.2 6.8-1.8-17.9-3.5-23.6-2c-9 2.4-16.1-.4-16.7-1.3s20.6-11.2 26.6-10.9 23.4-.5 23.4-.5z" fill="#ffb27d"/><path d="m2529.1 1200.1s5.6 137.7-10.6 157c-16.1 19.2-114.6-2.1-114.6-2.1l-6.8-10.1s87.4-12.8 93.3-14.5c8.4-2.4 2.6-97.2 2.6-97.2z" fill="#ffb27d"/><path d="m2507.4 1179.7c1.4 0 18.8 5.8 31.3 30.5 12.3 24.3 16.8 36.1 16.8 36.1s-54.5 42.2-76.1 26.7c-21.7-15.6 8-93.8 28-93.3z" fill="#f9ddbf"/><path d="m2404 1355s-7.8 7.9-10.8 12-23.8 11.4-24.3 9.2 9.3-8.8 10.2-11.2 11.6-14.9 18.1-16.3 6.8 6.3 6.8 6.3z" fill="#ffb27d"/><path d="m2397.1 1344.9s-32.1 7.4-37.6 9.7c-5.4 2.2-17 18.6-12.4 21.1 2.9 1.6 15.6-5.1 22-6.5s24.7 1.8 33-14.7c1-2-5-9.6-5-9.6z" fill="#ffb27d"/><path d="m2137.1 1719c-12.5 5.1-27.7 21.1-34 25.6s-47.5 2.9-48.8.1c-3.5-7.3 10.9-12.5 20.1-16.8.1-.1.3-.1.4-.2l1.3-.4s17.8 6.3 32.6 0c11.5-4.9 28.6-23.3 39.9-30.8 2.7 8.6-.2 17.8-11.5 22.5z" fill="#2e3552"/><path d="m2200.3 1648.8c-6.2 12-7.6 34-9.4 41.5s-34.4 32.9-37.2 31.6c-7.1-3.2-.3-15.6 4-24.7 2.6-.2 5.9-1 9.9-3.7 8.1-5.4 21.9-25.9 23.2-37.9 1-9.8.4-23.9 5.8-29.9 6.2 5 8.8 13.3 3.7 23.1z" fill="#2e3552"/><path d="m2355.7 1379.8h-139.9l-42.1-104.7h139.7z" fill="#f99746"/><path d="m2214.1 1375.7h184.8v4.1h-183.1z" fill="#ed7d2b"/><path d="m2251.1 1327.5c-1.1-3.7 1.1-6.7 4.8-6.7s7.5 3 8.6 6.7-1.1 6.7-4.8 6.7c-3.7-.1-7.5-3.1-8.6-6.7z" fill="#fff"/><path d="m2515.9 1379.2s-18.3 17.1-94.9 19.6-176.4 87-177.4 110.9c-.9 23.9 154.1 60.2 156.5 56.8s98.4-85.8 98.4-85.8z" fill="#f99746"/><path d="m2680.2 1600c-41.2-74.2-135.4 28.1-158.8-6.5s33.1-78.6 84-116.5c49.9-37.1 49.7-85.6 49.7-87.6 1.7 14.4 2.9 30.1 3.5 47.1 2.2 61.8 14.4 116.9 21.6 163.5z" fill="#ed7d2b"/><path d="m2014.8 563.5c.5 80.9-27.9 155.1-75.4 213-40.9 49.9-64 112-64 176.5v93c0 26.3-9.6 50.5-25.5 69.2-18.2 21.5-45 36.1-74.8 38.1-2.4.2-4.7 0-7.1 0h-171.8c-2.3 0-4.8.2-7.1 0-55.8-3.6-100.2-50.6-100.2-107.3v-92.8c0-64.4-22.7-126.6-63.7-176.3-47.3-57.5-75.8-131.1-75.8-211.4 0-184.5 149.8-332.7 332.7-332.7 183.5.1 331.7 147.3 332.7 330.7z" fill="#ffb93e"/><path d="m1775.1 1153.4c-.9 6.7-15.3 117.8-15.5 118.9-2.4 18.3-23.4 32.4-48.4 32.4h-56.5c-24.8 0-45.8-13.8-48.4-32-2.7-19.2-13.3-92.7-17.1-119.2h185.9z" fill="#ed7d2b"/><path d="m1752.7 1153.4h-.4-31.6c-51.6 14.9-102.7 29.6-126.4 36.3l1.2 8.7v.2l1.3 8.8c19.2-5.3 65.2-18.5 177.8-51.1l.4-2.9z" fill="#f99746"/><path d="m1602.9 1249.6v.2l1.3 8.8c22.2-6.2 68-19.4 163.3-47l1.3-9.6v-.1l1.2-9.5c-60.2 17.4-133.2 38.5-168.3 48.5z" fill="#f99746"/><path d="m1624.2 1296.8.3.2c4 2.3 8.4 4.2 13.2 5.5 26.2-7.5 64.9-18.7 122.7-35.4l1.2-9.6v-.1l1.2-9.5c-51.6 14.9-110.7 32-147.2 42.5 2.5 2.3 5.4 4.5 8.6 6.4z" fill="#f99746"/><path d="m1614.9 1153.4-71.9-424.4 14.8-2.5 72.3 426.9z" fill="#ffeac5"/><path d="m1742.8 1153.4h-15.4l77-420.2 14.8 2.7z" fill="#ffeac5"/><path d="m1721.9 805c-1.9 0-4.1-.2-6.5-.8-4-.9-6.6-3.7-7.4-8.1-1.7-9.4 5.7-26.7 16-41.3-5.4-9.5-12.6-17.2-20.2-19.5-11.2-3.4-28.3 6.9-40.2 20.1 2.2 3.1 4.2 6.3 5.9 9.6 6.1 11.5 10.5 26.3 4.5 33.1-2.2 2.5-6.8 4.8-15.8 1.4-11.3-4.2-15.3-13.8-11.1-26.2 2.1-6.1 5.9-12.4 10.7-18.3-9.2-12.1-21.6-21.2-33.8-19.7-6.5.8-12.1 3.1-16.7 6.3 7.8 14.5 9.6 32.9 4.2 42.7-3.7 6.7-10.1 8.8-18.1 6-5.7-2-8.7-10-7.6-20.1 1.1-10.4 6.3-21.8 15.6-29.8-2.4-3.8-5.3-7.1-8.7-9.7-21-16.3-38.3 1.2-39 2l-3.3-3.2c.2-.2 21-21.1 45.1-2.4 3.7 2.8 6.8 6.5 9.5 10.5 5.2-3.5 11.3-6 18.5-6.9 13.7-1.7 27.3 7.9 37.4 20.7 13-14.1 31.5-24.5 44.4-20.7 8.2 2.5 15.8 10.3 21.7 20 5.5-7.1 11.6-13.3 17.5-17.2 9.5-6.3 15.7-4.8 19.2-2.5 3.6 2.4 6.7 5.6 9.2 9.2 2.9-2.3 5.9-4.2 8.8-5.7 11-5.5 21.1-5.1 28.5 1.1l-2.9 3.5c-7.9-6.7-18.1-3.2-23.5-.5-2.9 1.5-5.8 3.3-8.5 5.5 7.3 13.2 8.8 30.4 4.6 38.8-2.7 5.2-7.4 7.1-12.9 5-9.9-3.6-12.4-10.5-12.7-15.6-.5-9.8 6.2-20.9 15.1-29.1-2.3-3.4-5-6.3-8.2-8.4-4.3-2.8-10.1-.2-14.2 2.5-5.9 3.9-12.1 10.4-17.6 17.7 6.8 13 10.4 28.1 7.8 37.9-1.4 5-5 12.1-15.3 12.1zm4.5-45.7c-9 13.2-15.4 28-13.9 36 .5 2.5 1.7 3.9 3.9 4.4 8.9 2 14.4-.6 16.3-7.7 2.2-8.2-.7-21.2-6.3-32.7zm-65.9-.3c-4.2 5.2-7.4 10.7-9.2 15.8-3.5 10.2-.6 17.1 8.4 20.5 3.6 1.4 8.5 2.5 10.8-.2 3.6-4.1 1.5-15.6-5.1-28-1.4-2.7-3.1-5.5-4.9-8.1zm-56.9-14.4c-7.9 7.1-12.4 17.1-13.4 26.2-.8 7.8 1.1 14.1 4.6 15.3 5.8 2.1 10 .8 12.6-3.9 4.6-8.4 2.9-24.6-3.8-37.6zm168 2.9c-7.9 7.6-13.3 17.3-12.9 24.8.3 5.4 3.6 9.3 9.7 11.6 3.4 1.2 5.7.3 7.2-2.8 3.6-7 2.1-22-4-33.6z" fill="#ffeac5"/><path d="m1853.9 360.8c27.3 25.8 23.9 73.2-11.3 83.7-26.5 8-66.1-2.7-85.6-36.5-19.5-33.9-10.5-61.7 13.4-75.5 24-13.9 55 1.5 83.5 28.3z" fill="#ffeac5"/><path d="m827.8 1066.5c-3.2-6.2 69.7-28.4 70.9 32.5 0 0 136.6-3.4 71.4-79.5-22.6-26.4-20.3-48.2-19.6-68.4.7-20.3-14.1-79.2-64.6-73.3 0 0-13.2-5.4-29.8 3.2-37.6 19.4-121.8 207.9-28.3 185.5z" fill="#163560"/><path d="m1051.1 1134.5s8.9-13.5 16.1-13.8 20.4-4 19.4-1.3-9.3 2.9-10.1 4.5 12.2 4 15.9 4.2c3.7.3 12.5 0 12.2 1.9s-15.8 9.6-26.7 8.5-24.5 3.2-24.5 3.2z" fill="#ffb27d"/><path d="m922.5 1138.8s4.8 9.6 13.6 20.6c10.6 13.2 26.9 28.5 47.3 31.5 9.8 1.4 19.3-.7 28.1-4.6 24.8-11 43.5-36.4 43.5-36.4 4.4-11.9-2.8-20-2.8-20s-50.2 11.3-54.9 8.9-32.6-82.7-39.3-92.8c-6.6-10.1-29.2-15.3-29.2-15.3z" fill="#f9ddbf"/><path d="m936.1 1159.4c10.6 13.2 26.9 28.5 47.3 31.5 9.8 1.4 19.3-.7 28.1-4.6-1 .1-25.8 3.2-35.7-14.5-10.1-18.1-21-46.7-36-37.2-6.4 4.2-6.1 14.5-3.7 24.8z" fill="#f2ccaa"/><path d="m735.4 1680.3s-15.3 14-12.3 23.9 16.8 16.5 18.7 28.7 9.3 18.8 16 18.8 32 0 32 0 5-8.5-7-11.1-16.5-16.8-15.7-30.1c.8-13.2-1.1-30.9-1.1-30.9l-25.4-5.9z" fill="#233862"/><path d="m864.9 1686.2s-5.5 59.2 1.2 62.5l86-.2s0-9.9-13.8-12.1-38.1-10.3-42.2-28.3-31.2-21.9-31.2-21.9z" fill="#233862"/><path d="m803.7 1261.7c17.7-39.7 28.5-51.1 26.5-63.4-1.5-9.2 4.7-170.9 4.7-170.9 2.1-.7 6.3-1.2 8.6-1.8 7.3-1.6 13.3-6.7 15.8-13.7 3-8.4 5.4-20.9 5.3-36.5l2.3.5 38.1 7.5s-.9 12-.9 23.3v.3c0 9.8 6.4 18.5 15.8 21.2 4.8 1.4 9 2.6 9 2.6s14 40 16.7 81-25.5 58.9.2 140.9c26.1 83.8-151.9 30.9-142.1 9z" fill="#ffb27d"/><path d="m904.9 983.4s-.9 12-.9 23.3c-21.3-.6-32.6-20.1-37.2-30.8z" fill="#e8945b"/><path d="m912 994.1s-50.5.8-50.5-30.6-6.6-52.5 25.7-54.4c32.2-1.9 38.5 10.1 41.1 20.6 2.5 10.6-3.1 63.4-16.3 64.4z" fill="#ffb27d"/><path d="m910.2 908.4s-13.8 36.9-35 42.3-30.4-.2-30.4-.2 16.3-12.9 19.6-35.5c0 0 35.3-24.2 45.8-6.6z" fill="#163560"/><path d="m906.7 911.4s10.2 3.8 14.5 11.3c4.1 7.3 7.6 17 6.8 28.9 0 0 10.4-25.1-1.3-39.2-12.4-15.2-20-1-20-1z" fill="#163560"/><path d="m901 974.6s3.5 4.6 10.5 4.2c5.6-.3 7.8-5.1 7.8-5.1s-10.3-2.5-18.3.9z" fill="#ebf3fa"/><path d="m798.8 1098.9s-1.3 18.1 0 39.8c.8 14.4 15.4 33.6 17.5 38.4 5.2 11.9 11 13.9 11 13.9l45.2 11.1 15.9 3.9 50.1-14.9s22.8-63.7 13.7-99.5c-9.2-35.8-23.2-60.7-23.2-60.7s-40.8 40-94-3.4z" fill="#f9ddbf"/><path d="m812 1144.5c.8 14.4 2.2 27.8 4.2 32.5 5.2 11.9 11 13.9 11 13.9l45.2 11.1 19.6-5.8s-65.5-9.9-58.2-66.2z" fill="#f2ccaa"/><path d="m935.2 1200.6s24.8 77.2 26.4 103.4c1.6 26.3-47.4 373.2-49.4 385.4-1.9 11.4-16 18.7-16 18.7s-6.5 3.8-15.8 1.2c-12.9-3.6-17-8-17-8s-19.3-247.5-7.4-335.9 12.1-164.8 12.1-164.8z" fill="#ed7d2b"/><path d="m830.1 1198.3s-37.8 50.7-41.3 85.1-5.5 154.8-13 188.2-35.1 97.8-35.1 202.1c0 0 2.9 6 11.7 9.2 2.8 1 6.6 2 10.3 2.8 7.3 1.7 14.8-1.9 18.1-8.6 18.7-37.6 78.1-158.7 81.1-183.9 2.2-17.8 20.9-135.6 61.9-204.7 9.8-16.6-6-82.6-6-82.6z" fill="#f99746"/><path d="m902.2 975.5s.9 3.7 10.1 3.1c0 0 7.7-.5 7.5-4.5 0-.1-7.5-3-17.6 1.4z" fill="#fff"/><path d="m939.1 1188.7s-10 7.9-29.7 8.3c-23.6.5-82.1-6-82.1-6s-2.6 7.3-2.5 14.9c0 0 71.5 18 112.9 2.6 0 0 5.3-10 1.4-19.8z" fill="#233862"/><path d="m904.3 1205.1c0-6.7 4.8-12.2 10.8-12.2 5.9 0 10.8 5.5 10.8 12.2s-4.8 12.2-10.8 12.2-10.8-5.5-10.8-12.2zm3.5 0c0 4.8 3.2 8.6 7.2 8.6s7.2-3.9 7.2-8.6-3.2-8.6-7.2-8.6c-3.9 0-7.2 3.9-7.2 8.6z" fill="#fff"/><path d="m764.1 1135.8h132.9v97.1h-132.9z" fill="#b5453c" transform="matrix(.6567 -.7542 .7542 .6567 -608.0695 1032.9978)"/><path d="m843.8 1202.9s26.8 3.1 26.8 9.5-6.7 19.4-10 20-21.8-17.7-21.8-17.7z" fill="#ffb27d"/><path d="m834.8 1027.4s-35.8 2.5-49.5 35.9-39.8 89.4-39.8 98.8 14.5 38.5 92.7 55.2c0 0 8.1-8.5 7.6-15.2 0 0-48.8-41.9-48.7-46.8.2-9.3 8-21.5 50.8-64.3 11.7-11.7-13.1-63.6-13.1-63.6z" fill="#f9ddbf"/><path d="m1144.5 1749.8h-.3c-2 0-3.6-1.7-3.6-3.7l5.4-234.3 15.9-1.9-13.6 236.2c-.1 2.1-1.7 3.7-3.8 3.7z" fill="#95c0f4"/><path d="m1400.6 1749.8h.3c2 0 3.6-1.7 3.6-3.7l-5.4-234.3-15.9-1.9 13.6 236.2c.1 2.1 1.8 3.7 3.8 3.7z" fill="#b0d4ff"/><path d="m1134 1497.3v-160.6c0-28.2 22.9-51.2 51.2-51.2h115.7c28.2 0 51.2 22.9 51.2 51.2v166.7z" fill="#b0d4ff"/><path d="m1372.7 1522.6h-223.4c-8.5 0-15.4-6.9-15.4-15.4v-10h238.7v25.4z" fill="#95c0f4"/><path d="m1399.4 1522.6h-169c-6.3 0-11.4-5.1-11.4-11.4v-2.6c0-6.3 5.1-11.4 11.4-11.4h169c6.3 0 11.4 5.1 11.4 11.4v2.6c0 6.4-5.1 11.4-11.4 11.4z" fill="#b0d4ff"/><path d="m1392.9 1457.3c-16.6 28.8-37.4 40-37.4 40h-86.7s136.7-62 124.1-40z" fill="#233862"/><path d="m1326.3 1680.4c-2.3 2.6-2.6 5.5-1.4 8.6 2.1 5.7 8.9 12.1 16.8 18.5 1 .8 1.9 1.6 2.7 2.2.2.2.4.4.6.5s.3.3.5.4c7.4 6.8 4.6 8.4 17.9 22.2 15.2 15.8 25.6 16.1 28.6 14.6 2.5-1.2-2.6-9.6-8.2-19-.3-.4-.5-.9-.8-1.4-.8-1.2-1.5-2.5-2.2-3.8-6.6-11.3-4.9-16.6-3.3-33.5 1.3-13.7 21.3-76.5 21.3-76.5l-29.1-5s-8.8 50-18.4 57.7c-5.2 4.1-10.9 4.2-15.9 7.2-.3.2-.7.4-1 .7-3 2.1-5.8 4-8.1 6.6z" fill="#ffb27d"/><path d="m1326.3 1680.4c-2.3 2.6-2.6 5.5-1.4 8.6 2.5 5.7 9.2 12.1 16.9 18.4 1 .8 1.9 1.6 2.7 2.3.2.2.4.4.6.5s.3.3.5.4c7.4 6.8 4.6 8.4 17.9 22.2 15.2 15.8 25.6 16.1 28.6 14.6 2.5-1.2-2.6-9.6-8.2-19-2.9-1.1-16.7-6.7-27-19.9-9.1-11.7-15.2-26.6-21.4-35.3-.3.2-.7.4-1 .7-3.1 2-5.9 3.9-8.2 6.5z" fill="#233862"/><path d="m1560.6 1662.3c1.8 9 14.6 7.5 28.9 4s10.9.7 31.2-1.6 26.5-9.8 27.1-12.8c.6-2.7-9.5-3.6-20.3-4.9-1.3-.2-2.7-.3-4.1-.5-12.2-1.5-21.1-9.4-32.1-15.8-10.5-6.1-26.1-31-26.1-31l-27.9 2.2s14.6 22.2 20.3 31.9c3.3 5.7 3.2 13.2 2.7 19-.1 3.1-.4 6.3.3 9.5z" fill="#ffb27d"/><path d="m1589.4 1666.3c14.3-3.5 10.9.7 31.2-1.6s26.5-9.8 27.1-12.8c.6-2.7-9.5-3.6-20.3-4.9l-.1.2s-12.2 8.6-29.1 9.1c-13.8.3-28.4-3.6-37.9-3.5-.2 3.2-.4 6.4.2 9.5 1.9 9 14.7 7.5 28.9 4z" fill="#233862"/><path d="m1453.7 1484-26.1 70.1-34 91.6s-9.2.9-18.1-1.7c-8.1-2.3-17.5-8.5-17.5-8.5s9.4-98.3 27.1-154.8c4.5-14.5 9.6-26.2 15.2-32.8 27.4-32.2 53.4 36.1 53.4 36.1z" fill="#233862"/><path d="m1427.2 1372.7c-17.1-5.5-65.8 1.6-114.7 11.1l-10.2-16.9-105.7-8.2s-34.9 77.3-15.8 126.6c2.8 7.2 8.4 11.9 17.9 12h1.5 83.3c52.5 0 111.2-36.1 118.8-37.6 12.4-2.5 17.4 22.4 29.8 48.4s116.8 115.5 116.8 115.5 16 .2 22.7-2.3c7.1-2.7 9.7-6.1 9.7-6.1s-115.5-230.1-154.1-242.5z" fill="#2b478b"/><path d="m1298.2 1059.3c-13.5-7.1-34.1-8.1-37.5-8.5-40-5.4-64.1 52.8-65.6 70.4-2.6 32.5-19.8 37.4-44 57.8-48.5 40.8-34.3 88.2-7.8 105.8 15.9 10.6 44 0 44 0 .4.3 76.7-42.7 114.3-63.4 56.5-8 31.1-144-3.4-162.1z" fill="#b5453c"/><path d="m1270.2 1203.8c.2.1-18.5 6.5-31 .9-11.8-5.2-20.7-24.5-20.5-24.5 5.3-.2 11.2-4.9 15.7-35.6l2.3.8 38.3 13.8s-2.8 12.3-4.6 24c-1.5 9.8-2.3 19.2-.2 20.6z" fill="#ffb27d"/><path d="m1275 1159.2s-2.8 12.3-4.6 24c-22-4-30.6-25.8-33.7-37.7z" fill="#ed975d"/><path d="m1280.7 1171.4s-52.3-7-47.5-39.6 1.4-55.4 35-52.2 38.2 16.5 39.3 27.8c1 11.2-13.1 65-26.8 64z" fill="#ffb27d"/><path d="m1305.6 1089.5s-33.5 28.9-56.3 31.2-31.4-5-31.4-5 13.4-11.2 21.5-29.2c2.4-5.3 7.4-8.9 13.2-9.4 16.3-1.4 47.1-2 53 12.4z" fill="#b5453c"/><path d="m1284.6 1086.9s11.2 10.8 14.7 18.9c3.4 7.8 4.4 26.3 1.7 33.7 0 0 17.5-34 7.6-50.5-10.4-17.5-24-2.1-24-2.1z" fill="#b5453c"/><path d="m1314.2 1280.9c-1.6 106-.4 83.8-12 93.9-2.8 2.4-10.7 3.9-21 4.6-32.5 2.2-89.6-3.2-91.8-9.2-7.5-20.8-2.2-27.2-8.5-59.1-.7-3.4-1.5-7-2.4-11-5.2-21.8-10.3-29.3 8.2-64.4 16.8-31.8 34.2-57.6 35.8-56.7 44.3 26.3 47.8 4.2 47.8 4.2s44.7 46 43.9 97.7z" fill="#f9ddbf"/><path d="m1427.7 1554.2-34 91.6s-9.2.9-18.1-1.7c-8.1-2.3-17.5-8.5-17.5-8.5s9.4-98.3 27.1-154.8z" fill="#2b478b"/><path d="m1270.4 1183.2s45.5 7.7 50.9 27.3 36.8 134.9 36.8 134.9-23.2 4.2-33.8-6.5-37.2-99.2-37.2-99.2z" fill="#f9ddbf"/><path d="m1281.2 1379.3c-32.5 2.2-89.6-3.2-91.8-9.2-7.5-20.8-2.2-27.2-8.5-59.1l15.7-44.1s-2.6 49.2 11.9 62.1 59.3 24.9 66.4 35.8c3.5 5.2 5.7 10.4 6.3 14.5z" fill="#f2ccaa"/><path d="m1244 1358.7s32.1-7.1 37.2-4.3c5.2 2.8 17.8 13.2 19.4 16.8s-11.5-2.7-15.8-3.9c-2.8-.7-10 1.8-13.6 3-15.1 5-24.4 2.4-24.4 2.4z" fill="#ffb27d"/><path d="m1222.5 1179s-43.1 2.7-57.9 23.4c-21 29.3-62.6 153.9-38.7 170.6 26.9 18.7 122.2 4.9 122.2 4.9s3.2-14.8-1.2-22-76.2-18.8-79.5-22.1 41.4-64.6 41.4-74.5 13.7-80.3 13.7-80.3z" fill="#f9ddbf"/><path d="m1282.8 1363.3s6.7 8.7 8.9 9.7 3.6.8 3.6.8l-4.5-8.2z" fill="#ffb27d"/><path d="m1281.2 1354.4 19.5 9.5s-.8 1.4-3.2 1.2c-2.4-.1-8.5-2.3-8.5-2.3z" fill="#ffb27d"/><path d="m1291.7 1386.3h154.5l46.5-115.6h-154.3z" fill="#f99746"/><path d="m1448 1381.8h-204v4.5h202.2z" fill="#ed7d2b"/><path d="m1407.2 1328.5c1.2-4.1-1.2-7.4-5.2-7.4s-8.3 3.3-9.5 7.4 1.2 7.4 5.2 7.4 8.3-3.3 9.5-7.4z" fill="#fff"/><path d="m1781.2 1753h.4c2.7 0 4.8-2.4 4.7-5.3l-7.2-341.9-21.1-2.7 18 344.6c.3 3 2.5 5.3 5.2 5.3z" fill="#233862"/><path d="m1249.1 1753h-.4c-2.7 0-4.8-2.4-4.7-5.3l7.2-341.9 21.1-2.7-18 344.6c-.2 3-2.5 5.3-5.2 5.3z" fill="#233862"/><path d="m1815.8 1410.7h-593.3c-4.7 0-8.5-3.8-8.5-8.5v-7.4c0-4.7 3.8-8.5 8.5-8.5h593.3c4.7 0 8.5 3.8 8.5 8.5v7.4c0 4.7-3.8 8.5-8.5 8.5z" fill="#233862"/><path d="m3002.2 1756.8h-2804.4c-2.1 0-3.8-1.7-3.8-3.8v-2.9c0-2.1 1.7-3.8 3.8-3.8h2804.4c2.1 0 3.8 1.7 3.8 3.8v2.9c0 2.2-1.7 3.8-3.8 3.8z" fill="#2e3552"/><path d="m2244.1 445.7 115.8 18.3-76.2-53.7-4.2 16.8-28.3 4.7z" fill="#9ec3f6"/><path d="m2359.9 464-95.8-51.3-94.6-6.2z" fill="#fff"/><path d="m2283.7 410.3 76.2 53.7-58.4-83z" fill="#fff"/><path d="m1133.2 559.5-150.8 43.3 92.4-83.7 8.3 21.6 38.4 1.5z" fill="#9ec3f6"/><path d="m982.4 602.8 118.8-83.8 124.7-23.7z" fill="#ebf3fa"/><path d="m1074.8 519.1-92.4 83.7 63.9-119.7z" fill="#ebf3fa"/></svg>